<?xml version="1.0" encoding="UTF-8"?>
<svg id="Layer_1" xmlns="http://www.w3.org/2000/svg" version="1.1" viewBox="0 0 141 141">
  <!-- Generator: Adobe Illustrator 30.0.0, SVG Export Plug-In . SVG Version: 2.1.1 Build 123)  -->
  <defs>
    <style>
      .st0 {
        fill: #231f20;
      }

      .st0, .st1 {
        stroke: #fff;
        stroke-miterlimit: 10;
      }

      .st1 {
        fill: #fff;
      }
    </style>
  </defs>
  <circle class="st0" cx="70.5" cy="70.5" r="55"/>
  <path class="st1" d="M44.41,85.52c4.27,6.18,8.63,12.79,12.95,19.02.53.77,1.18,1.58,1.79,2.1,1.4,1.19,2.56.58,3.81-.87,1.93-2.29,3.96-4.87,6.02-7.38,10.5-12.91,19.69-27.63,29.67-40.92,1.5-2.03,3.1-3.97,4.67-5.93,1.52-1.93,1.96-2.28.32-4.2-.59-.7-1.8-1.98-2.48-2.68-.73-.75-1.77-1.98-2.51-2.62-2.37-2.06-4.14-3.59-6.56-.8-.46.49-.89,1.06-1.31,1.61-1.75,2.31-3.56,4.71-5.3,7.04-6.83,9.13-13.42,18.9-20.64,27.33-1.23,1.41-2.78,3.31-4.42,3.25-1.54-.12-2.47-1.55-3.62-3.04-.88-1.17-1.82-2.44-2.74-3.65-.62-.8-6.81-9.53-7.56-10.08-2.19-1.74-4.35,1.28-5.89,3.08-2.98,3.76-6.33,4.67-2.75,9.68l6.55,9.04h0Z"/>
</svg>