<?xml version="1.0" encoding="UTF-8"?>
<svg id="Layer_1" xmlns="http://www.w3.org/2000/svg" version="1.1" viewBox="0 0 211 211">
  <!-- Generator: Adobe Illustrator 30.0.0, SVG Export Plug-In . SVG Version: 2.1.1 Build 123)  -->
  <defs>
    <style>
      .st0 {
        fill: #231f20;
      }

      .st0, .st1 {
        stroke: #fff;
        stroke-miterlimit: 10;
      }

      .st1 {
        fill: #fff;
      }
    </style>
  </defs>
  <circle class="st0" cx="105.5" cy="105.5" r="105"/>
  <path class="st1" d="M68.73,122.49c6.72,8.73,13.55,18.07,20.35,26.87.84,1.08,1.85,2.24,2.82,2.96,2.2,1.68,4.02.83,5.99-1.22,3.03-3.24,6.23-6.88,9.45-10.42,16.5-18.24,30.95-39.03,46.62-57.81,2.36-2.86,4.88-5.61,7.34-8.38,2.38-2.73,3.08-3.22.51-5.93-.93-.98-2.83-2.8-3.9-3.79-1.14-1.06-2.79-2.8-3.94-3.7-3.72-2.9-6.5-5.08-10.31-1.13-.72.7-1.4,1.49-2.06,2.28-2.75,3.26-5.6,6.65-8.33,9.94-10.74,12.9-21.09,26.7-32.44,38.61-1.94,1.99-4.37,4.67-6.95,4.59-2.43-.17-3.88-2.2-5.69-4.29-1.38-1.65-2.86-3.45-4.3-5.15-.97-1.13-10.71-13.46-11.88-14.24-3.44-2.45-6.84,1.81-9.25,4.36-4.68,5.31-9.95,6.6-4.32,13.68l10.29,12.78h0Z"/>
</svg>