<?xml version="1.0" encoding="UTF-8"?>
<svg id="Layer_1" xmlns="http://www.w3.org/2000/svg" version="1.1" viewBox="0 0 780.92 780.92">
  <!-- Generator: Adobe Illustrator 30.0.0, SVG Export Plug-In . SVG Version: 2.1.1 Build 123)  -->
  <defs>
    <style>
      .st0 {
        fill: #231f20;
      }

      .st0, .st1 {
        stroke: #fff;
        stroke-miterlimit: 10;
      }

      .st1 {
        fill: #fff;
      }
    </style>
  </defs>
  <circle class="st0" cx="390.46" cy="390.46" r="389.96"/>
  <path class="st1" d="M220.44,471.32c31.02,36.91,62.59,76.4,93.97,113.6,3.87,4.57,8.53,9.46,13.02,12.53,10.17,7.1,18.55,3.49,27.66-5.17,13.98-13.68,28.76-29.1,43.66-44.05,76.2-77.11,142.93-165,215.29-244.39,10.89-12.1,22.52-23.71,33.91-35.44,11-11.54,14.25-13.6,2.35-25.09-4.3-4.16-13.05-11.85-18-16.03-5.27-4.47-12.87-11.85-18.19-15.64-17.2-12.27-30.01-21.47-47.6-4.77-3.31,2.95-6.46,6.31-9.53,9.63-12.68,13.78-25.86,28.11-38.48,42.03-49.58,54.54-97.41,112.89-149.82,163.24-8.94,8.4-20.19,19.74-32.09,19.42-11.21-.72-17.91-9.29-26.26-18.14-6.37-6.98-13.23-14.58-19.86-21.78-4.48-4.77-49.44-56.91-54.88-60.21-15.88-10.38-31.58,7.65-42.71,18.42-21.63,22.46-45.94,27.9-19.96,57.82l47.5,54.02h0Z"/>
</svg>