<svg version="1.1" id="Layer_1" xmlns="http://www.w3.org/2000/svg" xmlns:xlink="http://www.w3.org/1999/xlink" x="0px" y="0px"
	 width="100%" viewBox="0 0 592 592" enable-background="new 0 0 592 592" xml:space="preserve">
<path fill="#000000" opacity="1.000000" stroke="none" 
	d="
M290.000000,520.245728 
	C219.505051,520.250305 149.510101,520.267578 79.515160,520.248047 
	C64.946915,520.243958 54.644836,511.704620 52.141850,497.587311 
	C51.079021,491.592865 52.551327,485.995605 55.544136,480.803406 
	C75.843620,445.586029 96.177879,410.388702 116.492241,375.179901 
	C139.804260,334.775574 163.089981,294.356049 186.418579,253.961273 
	C216.745392,201.448685 247.019012,148.905075 277.490417,96.476448 
	C289.165527,76.388496 313.224091,76.671944 324.911774,96.890900 
	C350.836823,141.739761 376.630493,186.664536 402.515900,231.536346 
	C431.483582,281.751190 460.498016,331.939087 489.483337,382.143768 
	C508.389648,414.890900 527.264282,447.656311 546.184448,480.395447 
	C556.714417,498.616333 544.621521,520.057251 523.483093,520.202087 
	C497.152924,520.382507 470.820526,520.240784 444.489105,520.240967 
	C393.159393,520.241394 341.829712,520.243835 290.000000,520.245728 
M392.297363,269.151245 
	C362.093323,216.921555 331.889282,164.691864 301.011627,111.297363 
	C227.305679,238.961395 154.387299,365.261261 81.144577,492.122925 
	C228.315399,492.122925 374.108124,492.122925 520.998596,492.122925 
	C477.872803,417.418549 435.262451,343.606995 392.297363,269.151245 
z"/>
<path fill="#000000" opacity="1.000000" stroke="none" 
	d="
M284.413605,207.419281 
	C291.808441,201.209015 299.386627,197.418091 308.876678,201.734726 
	C317.204742,205.522797 323.160919,211.377747 323.524292,220.840286 
	C323.777496,227.432892 322.684357,234.092209 322.008453,240.702896 
	C319.118408,268.969757 316.161804,297.229797 313.225861,325.491974 
	C310.873474,348.136841 308.479736,370.777557 306.199066,393.429626 
	C305.853607,396.860779 304.534943,398.364899 300.879059,398.376709 
	C297.054474,398.389130 296.091797,396.498840 295.754669,393.225281 
	C291.821625,355.031006 287.787048,316.847260 283.852600,278.653137 
	C282.013580,260.800781 280.452118,242.919250 278.520996,225.077347 
	C277.786224,218.288803 279.716370,212.648148 284.413605,207.419281 
z"/>
<path fill="#000000" opacity="1.000000" stroke="none" 
	d="
M320.057251,420.131714 
	C326.258636,431.261383 324.518311,442.490936 315.660828,450.140747 
	C307.774658,456.951721 295.236938,457.310089 287.117218,450.750000 
	C279.425079,444.535400 276.414917,436.446014 278.932831,426.811859 
	C281.341949,417.593933 287.636719,411.870667 296.904846,410.191498 
	C306.388031,408.473389 314.189392,411.871887 320.057251,420.131714 
z"/>
</svg>