<?xml version="1.0" encoding="UTF-8"?>
<svg id="Layer_1" xmlns="http://www.w3.org/2000/svg" version="1.1" viewBox="0 0 545.04 744.51">
  <!-- Generator: Adobe Illustrator 30.0.0, SVG Export Plug-In . SVG Version: 2.1.1 Build 123)  -->
  <defs>
    <style>
      .st0, .st1 {
        fill: #231f20;
      }

      .st1 {
        stroke: #000;
        stroke-miterlimit: 10;
      }
    </style>
  </defs>
  <g>
    <path class="st0" d="M257.56,119.45c-27.39,0-49.68-22.28-49.68-49.68s22.28-49.68,49.68-49.68,49.67,22.28,49.67,49.68-22.28,49.68-49.67,49.68Z"/>
    <path d="M257.56,20.6c27.12,0,49.18,22.06,49.18,49.18s-22.06,49.18-49.18,49.18-49.18-22.06-49.18-49.18,22.06-49.18,49.18-49.18M257.56,19.6c-27.71,0-50.18,22.46-50.18,50.18s22.46,50.18,50.18,50.18,50.18-22.46,50.18-50.18-22.46-50.18-50.18-50.18h0Z"/>
  </g>
  <path class="st1" d="M96.45,217.87c17.36-13.34,48.78-33.8,92.05-42.24,33.98-6.63,74.41-14.52,92.05,7.24,15.48,19.1,3.11,48.36-25.82,188.27-10.37,50.14-11.05,61.37.7,70.07,13,9.64,37.22,8.97,65.54-7.32,21.74-12.51,32.62-18.77,43.78-27.76,15.14-12.19,24.4-22.06,34.38-20.91,10.95,1.26,24.65,15.6,25.3,27.62.21,3.77-6.04,13.43-34.99,36.74-25.22,20.3-47.58,30.72-51.64,32.58-15.31,7.02-42.41,19.16-80.25,22.93-35.03,3.49-58.46,5.83-75.79-10.86-17.84-17.19-18.76-44.47-19.08-54.31-.76-22.78,8.46-43.66,26.94-84.48,14.34-31.69,24.98-49.75,30.31-82.07,4.24-25.69.46-32.11-2.25-35-14.49-15.49-59.28,5.14-66.23,8.45-19.52,9.28-25.75,17.44-34.8,14.48-12.42-4.06-17.7-24.97-20.21-43.45Z"/>
</svg>