<?xml version="1.0" encoding="UTF-8"?>
<svg id="Layer_1" data-name="Layer 1" xmlns="http://www.w3.org/2000/svg" xmlns:xlink="http://www.w3.org/1999/xlink" viewBox="0 0 1887.18 229.28">
  <defs>
    <style>
      .cls-1 {
        fill: url(#linear-gradient-8);
      }

      .cls-2 {
        fill: url(#linear-gradient-7);
      }

      .cls-3 {
        fill: url(#linear-gradient-5);
      }

      .cls-4 {
        fill: url(#linear-gradient-6);
      }

      .cls-5 {
        fill: url(#linear-gradient-9);
      }

      .cls-6 {
        fill: url(#linear-gradient-4);
      }

      .cls-7 {
        fill: url(#linear-gradient-3);
      }

      .cls-8 {
        fill: url(#linear-gradient-2);
      }

      .cls-9 {
        fill: url(#linear-gradient);
      }

      .cls-10 {
        fill: #fff;
      }

      .cls-11 {
        fill: url(#linear-gradient-10);
      }

      .cls-12 {
        fill: url(#linear-gradient-11);
      }

      .cls-13 {
        fill: url(#linear-gradient-12);
      }

      .cls-14 {
        fill: url(#linear-gradient-13);
      }

      .cls-15 {
        fill: url(#linear-gradient-19);
      }

      .cls-16 {
        fill: url(#linear-gradient-14);
      }

      .cls-17 {
        fill: url(#linear-gradient-21);
      }

      .cls-18 {
        fill: url(#linear-gradient-20);
      }

      .cls-19 {
        fill: url(#linear-gradient-22);
      }

      .cls-20 {
        fill: url(#linear-gradient-23);
      }

      .cls-21 {
        fill: url(#linear-gradient-28);
      }

      .cls-22 {
        fill: url(#linear-gradient-25);
      }

      .cls-23 {
        fill: url(#linear-gradient-32);
      }

      .cls-24 {
        fill: url(#linear-gradient-31);
      }

      .cls-25 {
        fill: url(#linear-gradient-33);
      }

      .cls-26 {
        fill: url(#linear-gradient-30);
      }

      .cls-27 {
        fill: url(#linear-gradient-15);
      }

      .cls-28 {
        fill: url(#linear-gradient-16);
      }

      .cls-29 {
        fill: url(#linear-gradient-17);
      }

      .cls-30 {
        fill: url(#linear-gradient-18);
      }

      .cls-31 {
        fill: url(#linear-gradient-27);
      }

      .cls-32 {
        fill: url(#linear-gradient-24);
      }

      .cls-33 {
        fill: url(#linear-gradient-26);
      }

      .cls-34 {
        fill: url(#linear-gradient-29);
      }
    </style>
    <linearGradient id="linear-gradient" x1="320.48" y1="208.05" x2="423.86" y2="208.05" gradientTransform="translate(-324.3 -182.19) scale(1.35) skewX(.01)" gradientUnits="userSpaceOnUse">
      <stop offset="0" stop-color="#fff23a"/>
      <stop offset=".04" stop-color="#fee52c"/>
      <stop offset=".12" stop-color="#fdd41a"/>
      <stop offset=".2" stop-color="#fdc90e"/>
      <stop offset=".28" stop-color="#fdc60b"/>
      <stop offset=".67" stop-color="#f28f3f"/>
      <stop offset=".89" stop-color="#ed693c"/>
      <stop offset="1" stop-color="#e83e39"/>
    </linearGradient>
    <linearGradient id="linear-gradient-2" x1="332.77" y1="220.45" x2="412" y2="220.45" xlink:href="#linear-gradient"/>
    <linearGradient id="linear-gradient-3" x1="342.54" y1="230.08" x2="403.52" y2="230.08" xlink:href="#linear-gradient"/>
    <linearGradient id="linear-gradient-4" x1="378.32" y1="442.45" x2="482.21" y2="442.45" gradientTransform="translate(-57.3 -678.39) rotate(25.01) scale(1.35) skewX(.01)" xlink:href="#linear-gradient"/>
    <linearGradient id="linear-gradient-5" x1="390.8" y1="454.8" x2="470.43" y2="454.8" gradientTransform="translate(-57.3 -678.39) rotate(25.01) scale(1.35) skewX(.01)" xlink:href="#linear-gradient"/>
    <linearGradient id="linear-gradient-6" x1="400.72" y1="464.39" x2="462" y2="464.39" gradientTransform="translate(-57.3 -678.39) rotate(25.01) scale(1.35) skewX(.01)" xlink:href="#linear-gradient"/>
    <linearGradient id="linear-gradient-7" x1="524.63" y1="632.18" x2="629.59" y2="632.18" gradientTransform="translate(367.19 -1018.09) rotate(48.35) scale(1.35) skewX(.01)" xlink:href="#linear-gradient"/>
    <linearGradient id="linear-gradient-8" x1="537.27" y1="644.4" x2="617.72" y2="644.4" gradientTransform="translate(367.19 -1018.09) rotate(48.35) scale(1.35) skewX(.01)" xlink:href="#linear-gradient"/>
    <linearGradient id="linear-gradient-9" x1="547.32" y1="653.89" x2="609.23" y2="653.89" gradientTransform="translate(367.19 -1018.09) rotate(48.35) scale(1.35) skewX(.01)" xlink:href="#linear-gradient"/>
    <linearGradient id="linear-gradient-10" x1="692.11" y1="704.53" x2="797.96" y2="704.53" gradientTransform="translate(798.74 -1116.47) rotate(69.3) scale(1.35) skewX(.01)" xlink:href="#linear-gradient"/>
    <linearGradient id="linear-gradient-11" x1="704.81" y1="716.65" x2="785.93" y2="716.65" gradientTransform="translate(798.74 -1116.47) rotate(69.3) scale(1.35) skewX(.01)" xlink:href="#linear-gradient"/>
    <linearGradient id="linear-gradient-12" x1="714.9" y1="726.06" x2="777.33" y2="726.06" gradientTransform="translate(798.74 -1116.47) rotate(69.3) scale(1.35) skewX(.01)" xlink:href="#linear-gradient"/>
    <linearGradient id="linear-gradient-13" x1="1642.88" y1="208.13" x2="1746.26" y2="208.13" gradientTransform="translate(2460.74 -182.19) rotate(179.99) scale(1.35 -1.35) skewX(.01)" xlink:href="#linear-gradient"/>
    <linearGradient id="linear-gradient-14" x1="1655.17" y1="220.53" x2="1734.4" y2="220.53" gradientTransform="translate(2460.74 -182.19) rotate(179.99) scale(1.35 -1.35) skewX(.01)" xlink:href="#linear-gradient"/>
    <linearGradient id="linear-gradient-15" x1="1664.94" y1="230.17" x2="1725.92" y2="230.17" gradientTransform="translate(2460.74 -182.19) rotate(179.99) scale(1.35 -1.35) skewX(.01)" xlink:href="#linear-gradient"/>
    <linearGradient id="linear-gradient-16" x1="1576.98" y1="-116.35" x2="1680.87" y2="-116.35" gradientTransform="translate(2193.75 -678.39) rotate(154.99) scale(1.35 -1.35) skewX(.01)" xlink:href="#linear-gradient"/>
    <linearGradient id="linear-gradient-17" x1="1589.46" y1="-104" x2="1669.08" y2="-104" gradientTransform="translate(2193.75 -678.39) rotate(154.99) scale(1.35 -1.35) skewX(.01)" xlink:href="#linear-gradient"/>
    <linearGradient id="linear-gradient-18" x1="1599.38" y1="-94.41" x2="1660.66" y2="-94.41" gradientTransform="translate(2193.75 -678.39) rotate(154.99) scale(1.35 -1.35) skewX(.01)" xlink:href="#linear-gradient"/>
    <linearGradient id="linear-gradient-19" x1="1403.88" y1="-355.77" x2="1508.84" y2="-355.77" gradientTransform="translate(1769.26 -1018.09) rotate(131.65) scale(1.35 -1.35) skewX(.01)" xlink:href="#linear-gradient"/>
    <linearGradient id="linear-gradient-20" x1="1416.52" y1="-343.54" x2="1496.97" y2="-343.54" gradientTransform="translate(1769.26 -1018.09) rotate(131.65) scale(1.35 -1.35) skewX(.01)" xlink:href="#linear-gradient"/>
    <linearGradient id="linear-gradient-21" x1="1426.57" y1="-334.05" x2="1488.49" y2="-334.05" gradientTransform="translate(1769.26 -1018.09) rotate(131.65) scale(1.35 -1.35) skewX(.01)" xlink:href="#linear-gradient"/>
    <linearGradient id="linear-gradient-22" x1="1159.99" y1="-532.44" x2="1265.84" y2="-532.44" gradientTransform="translate(1337.71 -1116.47) rotate(110.7) scale(1.35 -1.35) skewX(.01)" xlink:href="#linear-gradient"/>
    <linearGradient id="linear-gradient-23" x1="1172.69" y1="-520.32" x2="1253.81" y2="-520.32" gradientTransform="translate(1337.71 -1116.47) rotate(110.7) scale(1.35 -1.35) skewX(.01)" xlink:href="#linear-gradient"/>
    <linearGradient id="linear-gradient-24" x1="1182.78" y1="-510.91" x2="1245.21" y2="-510.91" gradientTransform="translate(1337.71 -1116.47) rotate(110.7) scale(1.35 -1.35) skewX(.01)" xlink:href="#linear-gradient"/>
    <linearGradient id="linear-gradient-25" x1="525.54" y1="657.44" x2="630.25" y2="657.44" gradientTransform="translate(392.19 -1048.94) rotate(49.09) scale(1.34) skewX(1.5)" xlink:href="#linear-gradient"/>
    <linearGradient id="linear-gradient-26" x1="538.18" y1="669.66" x2="618.39" y2="669.66" gradientTransform="translate(392.19 -1048.94) rotate(49.09) scale(1.34) skewX(1.5)" xlink:href="#linear-gradient"/>
    <linearGradient id="linear-gradient-27" x1="548.23" y1="679.16" x2="609.9" y2="679.16" gradientTransform="translate(392.19 -1048.94) rotate(49.09) scale(1.34) skewX(1.5)" xlink:href="#linear-gradient"/>
    <linearGradient id="linear-gradient-28" x1="781.76" y1="-335.57" x2="887.01" y2="-335.57" gradientTransform="translate(1196.25 -415.38) rotate(131.4) scale(1.36 -1.36) skewX(.51)" xlink:href="#linear-gradient"/>
    <linearGradient id="linear-gradient-29" x1="793.92" y1="-323.35" x2="874.66" y2="-323.35" gradientTransform="translate(1196.25 -415.38) rotate(131.4) scale(1.36 -1.36) skewX(.51)" xlink:href="#linear-gradient"/>
    <linearGradient id="linear-gradient-30" x1="803.83" y1="-313.86" x2="866.03" y2="-313.86" gradientTransform="translate(1196.25 -415.38) rotate(131.4) scale(1.36 -1.36) skewX(.51)" xlink:href="#linear-gradient"/>
    <linearGradient id="linear-gradient-31" x1="322.79" y1="212.14" x2="425.92" y2="212.14" gradientTransform="translate(-326.34 -192.87) rotate(.74) scale(1.34) skewX(1.48)" xlink:href="#linear-gradient"/>
    <linearGradient id="linear-gradient-32" x1="335.08" y1="224.54" x2="414.06" y2="224.54" gradientTransform="translate(-326.34 -192.87) rotate(.74) scale(1.34) skewX(1.48)" xlink:href="#linear-gradient"/>
    <linearGradient id="linear-gradient-33" x1="343.84" y1="235.15" x2="404.57" y2="235.15" gradientTransform="translate(-326.34 -192.87) rotate(.74) scale(1.34) skewX(1.48)" xlink:href="#linear-gradient"/>
  </defs>
  <path class="cls-9" d="M177.46,196.17l50.57-51.95c24.8-25.48,24.8-66.78,0-92.26L177.44,0l-52.08,53.5c-23.97,24.62-23.97,64.54,0,89.16l52.1,53.52Z"/>
  <path class="cls-8" d="M178.06,196.17l34.01-34.94c24.8-25.48,24.8-66.78,0-92.26l-34.62-35.56-35.52,36.49c-23.97,24.62-23.97,64.54,0,89.16l36.13,37.11Z"/>
  <path class="cls-7" d="M178.29,196.17l22.84-23.46c24.16-24.82,24.16-65.06,0-89.88l-22.85-23.47-23.19,23.82c-23.97,24.62-23.97,64.54,0,89.16l23.2,23.83Z"/>
  <path class="cls-6" d="M176.16,195.81l67.2-25.13c32.96-12.32,49.95-49.76,37.96-83.61l-24.47-69.06-69.21,25.88c-31.85,11.91-48.28,48.09-36.68,80.81l25.2,71.12Z"/>
  <path class="cls-3" d="M176.7,196.07l45.2-16.9c32.96-12.32,49.95-49.76,37.96-83.61l-16.75-47.26-47.2,17.65c-31.85,11.91-48.28,48.09-36.68,80.81l17.48,49.32Z"/>
  <path class="cls-4" d="M176.91,196.17l30.35-11.35c32.11-12.01,48.67-48.48,36.98-81.46l-11.05-31.19-30.81,11.52c-31.85,11.91-48.28,48.09-36.68,80.81l11.22,31.67Z"/>
  <path class="cls-2" d="M176.65,194.29l71.39,4.28c35.01,2.1,65.06-25.35,67.1-61.32l4.17-73.37-73.52-4.41c-33.84-2.03-62.87,24.5-64.85,59.26l-4.29,75.55Z"/>
  <path class="cls-1" d="M177.05,194.74l48.02,2.88c35.01,2.1,65.06-25.35,67.1-61.32l2.85-50.21-50.15-3.01c-33.84-2.03-62.87,24.5-64.85,59.26l-2.98,52.4Z"/>
  <path class="cls-5" d="M177.2,194.92l32.24,1.93c34.11,2.05,63.38-24.7,65.37-59.74l1.88-33.14-32.74-1.96c-33.84-2.03-62.87,24.5-64.85,59.26l-1.91,33.65Z"/>
  <path class="cls-11" d="M176.65,192.96l65.18,30.23c31.97,14.82,69.58.22,84.01-32.62l29.44-66.98-67.13-31.13c-30.89-14.33-67.25-.21-81.19,31.52l-30.31,68.98Z"/>
  <path class="cls-12" d="M176.86,193.53l43.84,20.33c31.97,14.82,69.58.22,84.01-32.62l20.15-45.84-45.78-21.23c-30.89-14.33-67.25-.21-81.19,31.52l-21.02,47.84Z"/>
  <path class="cls-13" d="M176.95,193.76l29.43,13.65c31.14,14.44,67.79.21,81.85-31.78l13.3-30.25-29.89-13.86c-30.89-14.33-67.25-.21-81.19,31.52l-13.5,30.72Z"/>
  <path class="cls-14" d="M177.82,196.47l-50.57-51.95c-24.8-25.48-24.8-66.78,0-92.26L177.85.3l52.08,53.5c23.97,24.62,23.97,64.54,0,89.16l-52.1,53.52Z"/>
  <path class="cls-16" d="M177.23,196.47l-34.01-34.94c-24.8-25.48-24.8-66.78,0-92.26l34.62-35.56,35.52,36.49c23.97,24.62,23.97,64.54,0,89.16l-36.13,37.11Z"/>
  <path class="cls-27" d="M177,196.47l-22.84-23.46c-24.16-24.82-24.16-65.06,0-89.88l22.85-23.47,23.19,23.82c23.97,24.62,23.97,64.54,0,89.16l-23.2,23.83Z"/>
  <path class="cls-28" d="M179.12,196.11l-67.2-25.13c-32.96-12.32-49.95-49.76-37.96-83.61l24.47-69.06,69.21,25.88c31.85,11.91,48.28,48.09,36.68,80.81l-25.2,71.12Z"/>
  <path class="cls-29" d="M178.58,196.37l-45.2-16.9c-32.96-12.32-49.95-49.76-37.96-83.61l16.75-47.26,47.2,17.65c31.85,11.91,48.28,48.09,36.68,80.81l-17.48,49.32Z"/>
  <path class="cls-30" d="M178.37,196.47l-30.35-11.35c-32.11-12.01-48.67-48.48-36.98-81.46l11.05-31.19,30.81,11.52c31.85,11.91,48.28,48.09,36.68,80.81l-11.22,31.67Z"/>
  <path class="cls-15" d="M178.63,194.59l-71.39,4.28c-35.01,2.1-65.06-25.35-67.1-61.32l-4.17-73.37,73.52-4.41c33.84-2.03,62.87,24.5,64.85,59.26l4.29,75.55Z"/>
  <path class="cls-18" d="M178.24,195.04l-48.02,2.88c-35.01,2.1-65.06-25.35-67.1-61.32l-2.85-50.21,50.15-3.01c33.84-2.03,62.87,24.5,64.85,59.26l2.98,52.4Z"/>
  <path class="cls-17" d="M178.08,195.22l-32.24,1.93c-34.11,2.05-63.38-24.7-65.37-59.74l-1.88-33.14,32.74-1.96c33.84-2.03,62.87,24.5,64.85,59.26l1.91,33.65Z"/>
  <path class="cls-19" d="M178.63,193.26l-65.18,30.23c-31.97,14.82-69.58.22-84.01-32.62L0,123.89l67.13-31.13c30.89-14.33,67.25-.21,81.19,31.52l30.31,68.98Z"/>
  <path class="cls-20" d="M178.42,193.83l-43.84,20.33c-31.97,14.82-69.58.22-84.01-32.62l-20.15-45.84,45.78-21.23c30.89-14.33,67.25-.21,81.19,31.52l21.02,47.84Z"/>
  <path class="cls-32" d="M178.34,194.06l-29.43,13.65c-31.14,14.44-67.79.21-81.85-31.78l-13.3-30.25,29.89-13.86c30.89-14.33,67.25-.21,81.19,31.52l13.5,30.72Z"/>
  <path class="cls-22" d="M179.16,195.51l68.84,4.13c35.01,2.1,65.06-25.35,67.1-61.32l4.22-74.31-70.97-4.26c-33.84-2.03-62.87,24.5-64.85,59.26l-4.35,76.5Z"/>
  <path class="cls-33" d="M179.54,195.97l45.9,2.75c35.01,2.1,65.06-25.35,67.1-61.32l2.9-51-48.03-2.88c-33.84-2.03-62.87,24.5-64.85,59.26l-3.02,53.19Z"/>
  <path class="cls-31" d="M179.69,196.15l30.46,1.83c34.11,2.05,63.38-24.7,65.37-59.74l1.92-33.8-30.95-1.86c-33.84-2.03-62.87,24.5-64.85,59.26l-1.95,34.31Z"/>
  <path class="cls-21" d="M179.67,196.15l-71.84,4.31c-35.01,2.1-65.06-25.35-67.1-61.32l-4.26-75.03,73.97-4.44c33.84-2.03,62.87,24.5,64.85,59.26l4.39,77.22Z"/>
  <path class="cls-34" d="M179.69,196.12l-48.38,2.9c-35.01,2.1-65.06-25.35-67.1-61.32l-2.93-51.59,50.51-3.03c33.84-2.03,62.87,24.5,64.85,59.26l3.06,53.78Z"/>
  <path class="cls-26" d="M179.66,196.15l-32.55,1.95c-34.11,2.05-63.38-24.7-65.37-59.74l-1.95-34.3,33.05-1.98c33.84-2.03,62.87,24.5,64.85,59.26l1.98,34.81Z"/>
  <path class="cls-24" d="M179.89,194.88l48.73-50.05c24.8-25.48,24.8-66.78,0-92.26L177.44,0l-50.23,51.6c-23.97,24.62-23.97,64.54,0,89.16l52.68,54.12Z"/>
  <path class="cls-23" d="M180.48,194.89l32.49-33.37c24.8-25.48,24.8-66.78,0-92.26l-35.11-36.06-34,34.92c-23.97,24.62-23.97,64.54,0,89.16l36.62,37.61Z"/>
  <path class="cls-25" d="M179.38,196.17l21.55-22.14c24.16-24.82,24.16-65.06,0-89.88l-23.26-23.89-21.9,22.5c-23.97,24.62-23.97,64.54,0,89.16l23.61,24.25Z"/>
  <g>
    <path class="cls-10" d="M432.2,152.42v2.59c-2.38,2.23-4.41,4.03-6.07,5.4-1.67,1.37-3.33,2.59-4.98,3.68-1.65,1.09-3.03,1.87-4.12,2.33-1.09.46-2.02.7-2.8.7-1.85,0-3.37-.69-4.55-2.07-1.18-1.38-1.77-3.16-1.77-5.34,0-2.51.51-4.99,1.52-7.44,1.01-2.46,2.46-4.99,4.34-7.61,1.88-2.62,4.24-5.56,7.07-8.82,2.11-2.41,3.16-3.76,3.16-4.06,0-.18-.06-.33-.19-.45-.13-.12-.26-.19-.41-.19-.48,0-1.94,1.05-4.4,3.16-2.46,2.11-5.61,5.2-9.46,9.29-3.85,4.09-8,8.95-12.46,14.59-.25.3-1.05,1.32-2.39,3.06-1.34,1.74-2.29,2.88-2.84,3.4-.55.53-1.03.79-1.43.79-.7,0-1.31-.71-1.82-2.12-.51-1.42-.77-2.93-.77-4.53,0-.98.32-2.03.96-3.16.64-1.13,2.03-3.15,4.17-6.07,2.14-2.92,3.92-5.38,5.32-7.39,1.4-2,2.94-4.44,4.62-7.29,1.18-1.98,2.05-3.56,2.61-4.74.56-1.18.85-2.22.85-3.12,0-.78-.23-1.17-.68-1.17-.95,0-2.74,1.27-5.38,3.82s-5.88,6.32-9.76,11.34c-3.87,5.01-7.91,10.82-12.13,17.41-1.38,2.26-2.36,3.77-2.93,4.55-.58.78-1.22,1.17-1.92,1.17-.88,0-1.7-.93-2.46-2.8s-1.15-3.38-1.15-4.53c0-.38.15-.79.45-1.24,3.31-4.41,6.03-8.16,8.16-11.24,2.13-3.08,4.02-6.01,5.68-8.78s2.86-5.05,3.61-6.84,1.13-3.2,1.13-4.23-.49-1.62-1.47-1.62c-.8,0-2.17.51-4.1,1.54-1.93,1.03-4.37,2.43-7.31,4.21-2.95,1.78-5.31,3.14-7.09,4.08-1.78.94-3.11,1.41-3.99,1.41-.83,0-1.24-.46-1.24-1.39,0-.53.18-1.74.53-3.63.35-1.89.71-3.23,1.09-4,.53-1,1.87-2.33,4.04-3.99s3.37-2.48,3.59-2.48c.2,0,.3.09.3.26,0,.1-.1.25-.3.45-1.03.83-1.79,1.5-2.29,2.03-.5.53-.81,1.1-.94,1.73,4.59-2.76,8.69-4.86,12.31-6.3,3.62-1.44,6.13-2.16,7.54-2.16.7,0,1.37.47,1.99,1.41.63.94,1.16,2.03,1.6,3.27.44,1.24.66,2.04.66,2.39,0,1.28-.33,2.79-.98,4.53-.65,1.74-1.54,3.77-2.65,6.07-1.12,2.31-2.5,5.19-4.15,8.65,1.3-1.68,2.54-3.23,3.72-4.66,1.18-1.43,2.35-2.82,3.52-4.17,1.17-1.35,2.35-2.72,3.55-4.1,1.63-1.88,3.46-3.68,5.49-5.4s3.93-3.12,5.7-4.21c1.77-1.09,2.96-1.64,3.59-1.64.88,0,1.66.48,2.35,1.45.69.97,1.03,2,1.03,3.1,0,.73-.48,2.12-1.43,4.17-.95,2.06-2.34,4.69-4.17,7.9-1.83,3.21-4.25,7.34-7.26,12.41,2.86-3.03,5.83-6.15,8.91-9.36,3.08-3.21,5.38-5.55,6.88-7.03,1.5-1.48,2.76-2.61,3.76-3.38,1.38-1.05,2.76-2.19,4.15-3.4,1.39-1.22,2.49-2.17,3.29-2.88.8-.7,1.52-1.24,2.14-1.62.63-.38,1.2-.56,1.73-.56.65,0,1.47.75,2.46,2.26s1.49,2.47,1.49,2.9c0,.53-.29,1.15-.88,1.88-.59.73-1.81,2.08-3.67,4.06-3.41,3.66-6.37,7.35-8.87,11.07-2.51,3.72-4.41,7.12-5.7,10.19-1.29,3.07-1.94,5.5-1.94,7.27,0,1.1.21,1.91.62,2.41.41.5,1.06.75,1.94.75.8,0,1.55-.15,2.24-.45.69-.3,1.45-.73,2.29-1.28.84-.55,1.64-1.08,2.39-1.58,1.05-.63,2.09-1.3,3.1-2.01,1.02-.71,1.8-1.28,2.37-1.69.56-.41.98-.71,1.26-.88Z"/>
    <path class="cls-10" d="M449.91,152.57v2.74c-2.43,3.13-4.7,5.5-6.81,7.09-2.11,1.59-3.9,2.39-5.38,2.39-2.06,0-3.58-1.08-4.59-3.23-1-2.16-1.5-4.51-1.5-7.07,0-.98.1-1.91.3-2.8.2-.89.44-1.62.71-2.2.28-.58.79-1.48,1.54-2.71,3.56-5.54,6.82-8.31,9.78-8.31,1.53,0,2.29.59,2.29,1.77,0,.8-.5,2.06-1.48,3.76-.99,1.7-1.87,2.92-2.65,3.65-2.18,2.11-3.6,3.57-4.27,4.4-.66.83-1,1.77-1,2.82,0,.9.34,1.65,1.02,2.26s1.55.9,2.63.9c1.18,0,2.48-.43,3.89-1.3,1.42-.87,3.25-2.25,5.51-4.15ZM447.35,135.77c-.63,0-1.22-.24-1.79-.71-.56-.48-.85-1.08-.85-1.8,0-1.1.53-2.33,1.58-3.68s2.14-2.03,3.27-2.03c.75,0,1.38.23,1.88.7.5.46.75,1.13.75,2.01,0,1.08-.51,2.27-1.54,3.57-1.03,1.3-2.13,1.96-3.31,1.96Z"/>
    <path class="cls-10" d="M474.91,145.77c-4.41,4.91-6.62,8.33-6.62,10.26,0,1.08.44,1.62,1.32,1.62.73,0,1.67-.38,2.84-1.15,1.17-.76,2.99-2.12,5.47-4.08v2.59c-3.56,3.51-6.29,6.04-8.2,7.59-1.91,1.55-3.46,2.33-4.66,2.33-2.06,0-3.08-1.35-3.08-4.06,0-.8.12-1.59.38-2.37.25-.78.6-1.58,1.03-2.43.44-.84,1.11-2.04,2.01-3.61.9-1.57,1.94-3.34,3.12-5.32-1.43.73-3.22,2.17-5.38,4.32-1.4,1.35-2.59,2.64-3.57,3.85-.98,1.22-2.02,2.57-3.14,4.06-1.12,1.49-1.93,2.49-2.44,3.01s-1.03.77-1.56.77c-.8,0-1.54-.84-2.22-2.52-.68-1.68-1.02-3.63-1.02-5.87,0-1.38.16-2.46.47-3.23.31-.78.93-1.88,1.86-3.31,1.73-2.66,3.22-4.61,4.47-5.85,1.25-1.24,2.46-1.86,3.61-1.86.8,0,1.45.14,1.94.41.49.28.73.7.73,1.28,0,.25-.08.51-.23.79-.15.28-.32.53-.51.75-.19.23-.58.66-1.18,1.32-3.96,4.39-5.94,7.23-5.94,8.53,0,.73.24,1.09.71,1.09.3,0,.88-.48,1.75-1.45.87-.96,1.98-2.23,3.35-3.8,1.37-1.57,2.98-3.2,4.85-4.91,1.87-1.7,3.99-3.35,6.37-4.93,1.33-.93,2.43-1.39,3.31-1.39.4,0,.8.55,1.18,1.65.39,1.1.58,2.22.58,3.35,0,.55-.54,1.39-1.62,2.52Z"/>
    <path class="cls-10" d="M495.66,152.57v2.74c-2.43,3.13-4.7,5.5-6.81,7.09-2.11,1.59-3.9,2.39-5.38,2.39-2.06,0-3.58-1.08-4.59-3.23-1-2.16-1.5-4.51-1.5-7.07,0-.98.1-1.91.3-2.8.2-.89.44-1.62.71-2.2.28-.58.79-1.48,1.54-2.71,3.56-5.54,6.82-8.31,9.78-8.31,1.53,0,2.29.59,2.29,1.77,0,.8-.5,2.06-1.48,3.76-.99,1.7-1.87,2.92-2.65,3.65-2.18,2.11-3.6,3.57-4.27,4.4-.66.83-1,1.77-1,2.82,0,.9.34,1.65,1.02,2.26s1.55.9,2.63.9c1.18,0,2.48-.43,3.89-1.3,1.42-.87,3.25-2.25,5.51-4.15ZM493.11,135.77c-.63,0-1.22-.24-1.79-.71-.56-.48-.85-1.08-.85-1.8,0-1.1.53-2.33,1.58-3.68s2.14-2.03,3.27-2.03c.75,0,1.38.23,1.88.7.5.46.75,1.13.75,2.01,0,1.08-.51,2.27-1.54,3.57-1.03,1.3-2.13,1.96-3.31,1.96Z"/>
    <path class="cls-10" d="M495.18,153.62v-.9c6.47-6.82,10.92-11.59,13.35-14.32.55-3.08,1.88-4.62,3.99-4.62.53,0,1.09.15,1.69.45l.23.71c-.1.3-.15.73-.15,1.28,0,.48.18,1.36.54,2.65.36,1.29.65,2.38.85,3.25.2.88.3,1.87.3,2.97,0,1.65-.38,3.24-1.13,4.76-.75,1.52-1.84,2.97-3.27,4.36-1.43,1.39-3.27,2.81-5.53,4.27.9.15,1.62.23,2.14.23,1.03,0,2.14-.26,3.33-.77s2.41-1.2,3.65-2.07c1.24-.86,2.69-1.99,4.34-3.36v2.52c-3.21,3.13-6.08,5.51-8.61,7.12-2.53,1.62-4.71,2.42-6.54,2.42-2.36,0-4.54-1-6.54-3.01-1.18-1.2-1.91-2.36-2.2-3.46-.29-1.1-.43-2.59-.43-4.47ZM509.2,147.87l-.68-5.49c-1.55,1.75-4.88,5.13-9.96,10.11,1.5.33,2.53.76,3.08,1.32.55.55,1.33,1.62,2.33,3.2,1.7-.7,3.01-1.66,3.93-2.88.92-1.22,1.37-2.88,1.37-4.98,0-.25,0-.48-.02-.68-.01-.2-.03-.4-.06-.6Z"/>
    <path class="cls-10" d="M532.55,133.06h1.62c1.33-2.38,2.53-4.07,3.61-5.06,1.08-.99,2.31-1.49,3.68-1.49s2.07.31,2.07.94c0,.3-.54,1.12-1.62,2.44-1.08,1.33-1.89,2.44-2.44,3.35.85.1,1.61.19,2.27.26.66.08,1.18.14,1.56.19-1.43,2.66-3.22,5.38-5.38,8.16-.7-.05-1.29-.09-1.77-.13-.48-.04-.96-.08-1.45-.11-.49-.04-1.08-.08-1.79-.13-1.35,2.18-2.49,4.13-3.4,5.85s-1.62,3.29-2.11,4.72c-.49,1.43-.73,2.78-.73,4.06,0,1.73.69,2.59,2.07,2.59.95,0,2.2-.51,3.74-1.52,1.54-1.02,3.6-2.58,6.18-4.68v2.52c-6.77,7.34-11.77,11.02-15,11.02-1.13,0-2.04-.44-2.73-1.32s-1.03-2-1.03-3.38c0-.93.19-2.03.58-3.31s1.08-3.21,2.09-5.79c-.35.3-.68.6-1,.88-.31.29-.6.55-.87.79-.26.24-.54.49-.85.75-.3.26-.6.53-.9.81v-2.59c2.63-2.21,5.81-6.08,9.55-11.62-.38-.02-.73-.04-1.05-.06-.33-.01-.71-.02-1.17-.02-1.48,0-2.58.1-3.31.3-.3.08-.58.16-.85.24-.26.09-.44.13-.54.13s-.15-.08-.15-.23c0-.83.51-2.07,1.54-3.72.83-1.4,1.61-2.44,2.35-3.12.74-.68,1.64-1.13,2.71-1.37,1.06-.24,2.56-.36,4.49-.36Z"/>
    <path class="cls-10" d="M544.62,153.93v.94c0,1.48.36,2.63,1.09,3.46.73.83,1.68,1.24,2.86,1.24s2.5-.29,3.82-.86c1.32-.58,2.63-1.34,3.93-2.29,1.3-.95,2.9-2.23,4.77-3.83v2.29c-2.83,3.41-5.49,6.02-7.97,7.84-2.48,1.82-5,2.73-7.56,2.73-2.23,0-4-.86-5.3-2.59-1.3-1.73-1.96-4.1-1.96-7.11,0-2.63.61-5.02,1.84-7.16,1.23-2.14,3.23-4.4,6.02-6.79,1.9-1.63,3.8-2.86,5.68-3.68s3.56-1.24,5.04-1.24c1.18,0,2.11.27,2.8.81.69.54,1.03,1.35,1.03,2.43,0,1.58-.59,3.15-1.77,4.72-1.18,1.57-2.98,3.12-5.4,4.66-2.42,1.54-5.4,3.03-8.93,4.46ZM544.99,151.48c2.26-.88,4.19-1.97,5.79-3.27,1.6-1.3,2.79-2.55,3.55-3.74s1.15-2.06,1.15-2.61-.26-.86-.79-.86c-.45,0-1.18.29-2.2.86-1.02.58-2.04,1.33-3.08,2.26-1.04.93-1.97,2.02-2.8,3.27-.83,1.25-1.37,2.62-1.62,4.1Z"/>
    <path class="cls-10" d="M560.71,155.47v-2.44c1.35-1.6,2.38-2.97,3.08-4.1-.8-.28-1.39-.61-1.75-1.02-.36-.4-.55-1-.55-1.8,0-.9.38-2.04,1.13-3.42.75-1.38,1.68-2.67,2.78-3.87,1.1-1.2,2.11-1.98,3.01-2.33.35-.18.69-.26,1.02-.26.5,0,.75.24.75.71,0,.43-.39,1.29-1.17,2.59,5.16-.8,8.42-1.2,9.78-1.2.53,0,.89.05,1.09.15.43.23.78.75,1.05,1.58.28.83.41,1.65.41,2.48,0,.53-.23,1.1-.7,1.71s-1.26,1.51-2.39,2.69c-1.33,1.43-2.44,2.98-3.35,4.66-.9,1.68-1.35,2.95-1.35,3.8,0,1.18.73,1.77,2.18,1.77,1.53,0,4.19-1.55,7.97-4.66v2.52c-2.08,2.18-3.8,3.9-5.15,5.15-1.35,1.25-2.61,2.25-3.76,2.99-1.15.74-2.18,1.11-3.08,1.11-1.05,0-1.93-.48-2.63-1.45-.7-.96-1.05-2.36-1.05-4.19,0-1.08.28-2.31.83-3.68.55-1.38,1.36-2.88,2.43-4.49,1.06-1.62,2.26-3.23,3.59-4.83-.7.15-1.49.31-2.37.47-.88.16-1.8.33-2.78.51-.98.18-1.73.31-2.26.41-1.55,3.11-3.81,5.93-6.77,8.46Z"/>
    <path class="cls-10" d="M601.54,152.57v2.74c-2.43,3.13-4.7,5.5-6.81,7.09-2.11,1.59-3.9,2.39-5.38,2.39-2.06,0-3.58-1.08-4.59-3.23-1-2.16-1.5-4.51-1.5-7.07,0-.98.1-1.91.3-2.8.2-.89.44-1.62.71-2.2.28-.58.79-1.48,1.54-2.71,3.56-5.54,6.82-8.31,9.78-8.31,1.53,0,2.29.59,2.29,1.77,0,.8-.5,2.06-1.48,3.76-.99,1.7-1.87,2.92-2.65,3.65-2.18,2.11-3.6,3.57-4.27,4.4-.66.83-1,1.77-1,2.82,0,.9.34,1.65,1.02,2.26s1.55.9,2.63.9c1.18,0,2.48-.43,3.89-1.3,1.42-.87,3.25-2.25,5.51-4.15ZM598.98,135.77c-.63,0-1.22-.24-1.79-.71-.56-.48-.85-1.08-.85-1.8,0-1.1.53-2.33,1.58-3.68s2.14-2.03,3.27-2.03c.75,0,1.38.23,1.88.7.5.46.75,1.13.75,2.01,0,1.08-.51,2.27-1.54,3.57-1.03,1.3-2.13,1.96-3.31,1.96Z"/>
    <path class="cls-10" d="M607.22,153.93v.94c0,1.48.36,2.63,1.09,3.46.73.83,1.68,1.24,2.86,1.24s2.5-.29,3.82-.86c1.32-.58,2.63-1.34,3.93-2.29,1.3-.95,2.9-2.23,4.77-3.83v2.29c-2.83,3.41-5.49,6.02-7.97,7.84-2.48,1.82-5,2.73-7.56,2.73-2.23,0-4-.86-5.3-2.59-1.3-1.73-1.96-4.1-1.96-7.11,0-2.63.61-5.02,1.84-7.16,1.23-2.14,3.23-4.4,6.02-6.79,1.9-1.63,3.8-2.86,5.68-3.68s3.56-1.24,5.04-1.24c1.18,0,2.11.27,2.8.81.69.54,1.03,1.35,1.03,2.43,0,1.58-.59,3.15-1.77,4.72-1.18,1.57-2.98,3.12-5.4,4.66-2.42,1.54-5.4,3.03-8.93,4.46ZM607.59,151.48c2.26-.88,4.19-1.97,5.79-3.27,1.6-1.3,2.79-2.55,3.55-3.74s1.15-2.06,1.15-2.61-.26-.86-.79-.86c-.45,0-1.18.29-2.2.86-1.02.58-2.04,1.33-3.08,2.26-1.04.93-1.97,2.02-2.8,3.27-.83,1.25-1.37,2.62-1.62,4.1Z"/>
    <path class="cls-10" d="M636.88,133.06h1.62c1.33-2.38,2.53-4.07,3.61-5.06,1.08-.99,2.31-1.49,3.68-1.49s2.07.31,2.07.94c0,.3-.54,1.12-1.62,2.44-1.08,1.33-1.89,2.44-2.44,3.35.85.1,1.61.19,2.27.26.66.08,1.18.14,1.56.19-1.43,2.66-3.22,5.38-5.38,8.16-.7-.05-1.29-.09-1.77-.13-.48-.04-.96-.08-1.45-.11-.49-.04-1.08-.08-1.79-.13-1.35,2.18-2.49,4.13-3.4,5.85s-1.62,3.29-2.11,4.72c-.49,1.43-.73,2.78-.73,4.06,0,1.73.69,2.59,2.07,2.59.95,0,2.2-.51,3.74-1.52,1.54-1.02,3.6-2.58,6.18-4.68v2.52c-6.77,7.34-11.77,11.02-15,11.02-1.13,0-2.04-.44-2.73-1.32s-1.03-2-1.03-3.38c0-.93.19-2.03.58-3.31s1.08-3.21,2.09-5.79c-.35.3-.68.6-1,.88-.31.29-.6.55-.87.79-.26.24-.54.49-.85.75-.3.26-.6.53-.9.81v-2.59c2.63-2.21,5.81-6.08,9.55-11.62-.38-.02-.73-.04-1.05-.06-.33-.01-.71-.02-1.17-.02-1.48,0-2.58.1-3.31.3-.3.08-.58.16-.85.24-.26.09-.44.13-.54.13s-.15-.08-.15-.23c0-.83.51-2.07,1.54-3.72.83-1.4,1.61-2.44,2.35-3.12.74-.68,1.64-1.13,2.71-1.37,1.06-.24,2.56-.36,4.49-.36Z"/>
    <path class="cls-10" d="M685.49,152.57v2.59c-1.5,1.5-2.64,2.59-3.42,3.27-.78.68-1.84,1.37-3.2,2.07,0,2.28-.11,4.22-.34,5.83-.23,1.6-.73,3.29-1.5,5.06-.78,1.77-1.98,3.7-3.61,5.81-1.6,2.08-3.18,3.68-4.74,4.79-1.55,1.11-2.77,1.67-3.65,1.67-.98,0-1.88-.8-2.71-2.41-.83-1.6-1.24-3.6-1.24-5.98s.39-4.69,1.17-7.22c.78-2.53,1.98-5.8,3.61-9.81-1.23-1.6-1.84-3.2-1.84-4.77,0-1.28.33-2.26.98-2.93.65-.68,1.58-1.29,2.78-1.84.88-1.38,1.71-2.55,2.5-3.52.79-.96,1.86-2.25,3.21-3.85,2.61-6.42,5.66-12.68,9.17-18.8.98-1.7,1.68-2.85,2.11-3.44.43-.59.88-.88,1.35-.88.43,0,.8.31,1.13.94.33.63.49,1.44.49,2.44,0,1.23-.13,2.36-.4,3.38-.26,1.03-.64,2.06-1.13,3.1-.49,1.04-1.17,2.29-2.03,3.74-.86,1.45-1.4,2.36-1.6,2.71-1.25,2.21-2.67,4.65-4.25,7.33-1.58,2.68-2.83,4.8-3.74,6.35-.92,1.55-1.57,2.72-1.97,3.5,1.35,1.18,2.43,2.19,3.21,3.05.79.85,1.47,1.87,2.05,3.05.85-.33,1.63-.71,2.33-1.17.7-.45,1.53-1.07,2.48-1.86.95-.79,1.88-1.52,2.78-2.2ZM674.25,162.65l-.08-.79c-.7.08-1.27.09-1.69.06-.43-.04-.92-.14-1.48-.32-.56-.18-1-.34-1.32-.49s-.66-.3-1.03-.45c-1.91,4.66-2.86,8.53-2.86,11.62,0,1.53.23,2.83.7,3.91.46,1.08,1.01,1.62,1.64,1.62s1.47-.58,2.46-1.73c.99-1.15,1.85-2.86,2.58-5.11.73-2.26,1.09-5.03,1.09-8.31Z"/>
    <path class="cls-10" d="M709.6,152.5v2.52c-1.65,1.5-2.98,2.51-3.99,3.01-1,.5-2.44.7-4.32.6-3.26,3.86-6.13,5.79-8.61,5.79-1.4,0-2.68-.46-3.83-1.39-1.15-.93-2.07-2.19-2.76-3.8-.69-1.6-1.03-3.4-1.03-5.38,0-1.6.53-3.38,1.6-5.34s2.44-3.78,4.14-5.47,3.5-3.06,5.43-4.1c1.93-1.04,3.72-1.56,5.38-1.56,1.18,0,2.11.18,2.78.55s1.02.87,1.02,1.52c0,.5-.29,1.08-.86,1.73.95.2,1.6.53,1.96,1,.35.46.53,1.31.53,2.54s-.28,2.72-.85,4.55c-.56,1.83-1.33,3.55-2.31,5.15l.68.68h.56c.43,0,.85-.11,1.26-.32.41-.21.78-.44,1.11-.68.33-.24,1.04-.77,2.14-1.6ZM701.85,142.61c-2.08,1.25-3.86,2.39-5.34,3.4-1.48,1.02-2.73,2.04-3.76,3.08-1.03,1.04-1.72,2.09-2.07,3.14-.63,2.81-.94,4.32-.94,4.55,0,1.65,1.15,2.48,3.46,2.48,1.08,0,2.88-.93,5.41-2.78-.43-1.18-.64-2.31-.64-3.38,0-1.58.33-3.19.98-4.83.65-1.64,1.62-3.53,2.9-5.66Z"/>
    <path class="cls-10" d="M709.14,155.47v-2.44c1.35-1.6,2.38-2.97,3.08-4.1-.8-.28-1.39-.61-1.75-1.02-.36-.4-.55-1-.55-1.8,0-.9.38-2.04,1.13-3.42.75-1.38,1.68-2.67,2.78-3.87,1.1-1.2,2.11-1.98,3.01-2.33.35-.18.69-.26,1.02-.26.5,0,.75.24.75.71,0,.43-.39,1.29-1.17,2.59,5.16-.8,8.42-1.2,9.78-1.2.53,0,.89.05,1.09.15.43.23.78.75,1.05,1.58.28.83.41,1.65.41,2.48,0,.53-.23,1.1-.7,1.71s-1.26,1.51-2.39,2.69c-1.33,1.43-2.44,2.98-3.35,4.66-.9,1.68-1.35,2.95-1.35,3.8,0,1.18.73,1.77,2.18,1.77,1.53,0,4.19-1.55,7.97-4.66v2.52c-2.08,2.18-3.8,3.9-5.15,5.15-1.35,1.25-2.61,2.25-3.76,2.99-1.15.74-2.18,1.11-3.08,1.11-1.05,0-1.93-.48-2.63-1.45-.7-.96-1.05-2.36-1.05-4.19,0-1.08.28-2.31.83-3.68.55-1.38,1.36-2.88,2.43-4.49,1.06-1.62,2.26-3.23,3.59-4.83-.7.15-1.49.31-2.37.47-.88.16-1.8.33-2.78.51-.98.18-1.73.31-2.26.41-1.55,3.11-3.81,5.93-6.77,8.46Z"/>
    <path class="cls-10" d="M792.54,153.55c-.63-1.15-1.57-2.19-2.82-3.12-1.25-.93-2.66-1.67-4.23-2.24-1.57-.56-3.2-.98-4.91-1.26-5.06-.75-9.79-2.39-14.17-4.93-.38-.2-.78-.63-1.2-1.28-.43-.65-.64-1.28-.64-1.88,0-2.21.37-4.42,1.11-6.64.74-2.22,1.69-3.95,2.84-5.21,1.85-2.08,5.19-3.9,10.02-5.45,4.83-1.55,10.26-2.33,16.3-2.33,3.61,0,6.4.28,8.37.83,1.97.55,2.95,1.4,2.95,2.56,0,1.88-.26,3.33-.77,4.36-.51,1.03-1.07,1.71-1.65,2.05-.59.34-1.62.8-3.1,1.37-1.58.55-2.95,1.13-4.12,1.73-1.17.6-2.16,1.18-2.99,1.73-.83.55-1.34.83-1.54.83-.25,0-.38-.1-.38-.3,0-.43.44-1.07,1.33-1.94.89-.87,1.99-1.62,3.29-2.27,1.38-.73,2.07-1.19,2.07-1.39,0-.33-.76-.49-2.29-.49-4.64,0-8.92.41-12.86,1.24-3.93.83-7.04,1.92-9.3,3.27-2.27,1.35-3.4,2.73-3.4,4.14,0,.88.47,1.5,1.41,1.86.94.36,3.01.97,6.22,1.82,3.21.85,6.08,1.83,8.61,2.93,3.63,1.55,6.33,3.17,8.08,4.85,1.75,1.68,2.63,3.56,2.63,5.64,0,1.43-.34,2.86-1.03,4.3-.69,1.44-1.7,2.76-3.03,3.97-1.33,1.2-2.86,2.19-4.59,2.97-1.48.63-3.34,1.22-5.58,1.77-2.24.55-4.67.98-7.29,1.3-2.62.31-5.12.47-7.5.47-4.39,0-7.91-.41-10.58-1.24-2.67-.83-4-2.08-4-3.76,0-.75.45-1.92,1.35-3.52.9-1.59,1.97-2.66,3.2-3.21,1.08-.43,2.12-.67,3.12-.73,1-.06,1.5.06,1.5.36,0,.08-.04.15-.11.23-.07.08-.16.14-.26.19l-.3.15c-.5.2-.91.36-1.22.47-.31.11-.56.23-.75.34-.19.11-.28.27-.28.47,0,.53,2.59.79,7.78.79,4.51,0,8.21-.16,11.09-.49,2.88-.33,5.43-.91,7.63-1.77,2.21-.85,4.21-2.03,6.02-3.53Z"/>
    <path class="cls-10" d="M807.76,145.84c3.81-3.46,7.51-6.03,11.09-7.71,3.58-1.68,6.35-2.52,8.31-2.52.53,0,1.02.22,1.47.66s.81.95,1.07,1.52c.26.58.4,1,.4,1.28,0,.45-.18.78-.53,1-.35.21-.96.47-1.84.77.17.4.4.92.68,1.54.28.63.49,1.13.64,1.52.15.39.22.73.22,1.03,0,.6-.61,1.72-1.82,3.37s-2.07,2.85-2.56,3.63c-.49.78-.73,1.73-.73,2.86,0,1.85.85,2.78,2.56,2.78s4.5-1.64,8.23-4.93v2.29c-6.34,7.04-10.88,10.56-13.61,10.56-.98,0-1.67-.32-2.09-.96-.41-.64-.62-1.59-.62-2.84,0-1.98.71-4.85,2.14-8.61-3.66,4.06-6.38,6.95-8.16,8.67-1.78,1.72-3.25,2.58-4.4,2.58-.55,0-1.24-.48-2.07-1.43-.83-.95-1.56-2.19-2.2-3.7-.64-1.52-.96-3.09-.96-4.72,0-1.18.11-2.16.34-2.95.22-.79.66-1.6,1.32-2.43.65-.83,1.69-1.92,3.12-3.27ZM825.77,141.71c-6.52,2.98-11.16,5.51-13.93,7.59-2.77,2.08-4.15,4.22-4.15,6.43,0,.8.14,1.46.41,1.97.28.51.65.77,1.13.77.28,0,.76-.18,1.47-.53,2.63-1.55,5.04-3.58,7.22-6.07,2.18-2.49,4.8-5.88,7.86-10.17Z"/>
    <path class="cls-10" d="M851.79,157.72c3.46-3.06,6.43-5.72,8.91-7.99s4.43-4.05,5.85-5.36c1.42-1.3,2.66-2.41,3.74-3.31,1.08-.9,1.77-1.35,2.07-1.35.58-.02,1.13.57,1.65,1.79.53,1.22.79,2.19.79,2.91,0,.48-.8,1.6-2.39,3.37-1.59,1.77-2.78,3.18-3.57,4.23-.79,1.05-1.18,2.16-1.18,3.31,0,.68.22,1.22.68,1.64.45.41.99.62,1.62.62.73,0,1.6-.38,2.61-1.13,1.01-.75,2.61-2.09,4.79-4.02v2.67c-2.18,2.06-4.16,3.83-5.94,5.32-1.78,1.49-3.33,2.61-4.64,3.35-1.32.74-2.41,1.11-3.29,1.11-.78,0-1.43-.29-1.96-.88-.53-.59-.79-1.32-.79-2.2s.15-1.72.45-2.59c.3-.88.76-1.92,1.39-3.12.63-1.2,1.45-2.65,2.48-4.34,1.03-1.69,1.97-3.24,2.82-4.64-2.56,2.08-4.83,4.09-6.8,6.02-1.98,1.93-3.6,3.62-4.85,5.06-1.25,1.44-2.24,2.58-2.97,3.4-1.4,1.55-2.71,2.33-3.91,2.33-1.3,0-1.96-.93-1.96-2.78,0-.75.49-2.1,1.47-4.04.98-1.94,2.37-4.42,4.17-7.43.15-.2.23-.51.23-.94,0-.5-.25-.75-.75-.75-.55,0-1.35.52-2.39,1.56s-3.05,3.21-6.03,6.52c-.83.93-1.76,2.14-2.8,3.63-1.04,1.49-1.79,2.49-2.24,2.99-.45.5-.9.75-1.35.75-.9,0-1.74-.8-2.52-2.41-.78-1.6-1.17-3.47-1.17-5.6,0-1.55.26-2.9.77-4.02s1.31-2.53,2.39-4.21c1.68-2.43,3.05-4.17,4.12-5.21,1.06-1.04,2.19-1.56,3.37-1.56.73,0,1.34.14,1.84.43.5.29.75.68.75,1.18,0,.53-.46,1.39-1.37,2.59-.92,1.2-2.07,2.44-3.48,3.72-.75.73-1.47,1.62-2.14,2.69s-1.01,1.84-1.01,2.31c0,.68.26,1.02.79,1.02.43,0,1.5-.88,3.23-2.63,1.73-1.75,3.63-3.67,5.7-5.73,2.07-2.07,3.99-3.78,5.75-5.15,1.77-1.37,3.26-2.05,4.49-2.05.75,0,1.37.28,1.86.85.49.56.73,1.26.73,2.09,0,.55-.38,1.55-1.13,2.99s-1.85,3.22-3.29,5.34c-1.44,2.12-3.3,4.68-5.58,7.69Z"/>
    <path class="cls-10" d="M898.03,152.57v2.59c-1.5,1.5-2.64,2.59-3.42,3.27-.78.68-1.84,1.37-3.2,2.07,0,2.28-.11,4.22-.34,5.83-.23,1.6-.73,3.29-1.5,5.06-.78,1.77-1.98,3.7-3.61,5.81-1.6,2.08-3.18,3.68-4.74,4.79-1.55,1.11-2.77,1.67-3.65,1.67-.98,0-1.88-.8-2.71-2.41-.83-1.6-1.24-3.6-1.24-5.98s.39-4.69,1.17-7.22c.78-2.53,1.98-5.8,3.61-9.81-1.23-1.6-1.84-3.2-1.84-4.77,0-1.28.33-2.26.98-2.93.65-.68,1.58-1.29,2.78-1.84.88-1.38,1.71-2.55,2.5-3.52.79-.96,1.86-2.25,3.21-3.85,2.61-6.42,5.66-12.68,9.17-18.8.98-1.7,1.68-2.85,2.11-3.44.43-.59.88-.88,1.35-.88.43,0,.8.31,1.13.94.33.63.49,1.44.49,2.44,0,1.23-.13,2.36-.39,3.38-.26,1.03-.64,2.06-1.13,3.1-.49,1.04-1.17,2.29-2.03,3.74-.86,1.45-1.4,2.36-1.6,2.71-1.25,2.21-2.67,4.65-4.25,7.33-1.58,2.68-2.83,4.8-3.74,6.35-.92,1.55-1.57,2.72-1.97,3.5,1.35,1.18,2.42,2.19,3.21,3.05.79.85,1.47,1.87,2.05,3.05.85-.33,1.63-.71,2.33-1.17.7-.45,1.53-1.07,2.48-1.86.95-.79,1.88-1.52,2.78-2.2ZM886.79,162.65l-.08-.79c-.7.08-1.27.09-1.69.06-.43-.04-.92-.14-1.49-.32-.56-.18-1-.34-1.32-.49s-.66-.3-1.03-.45c-1.9,4.66-2.86,8.53-2.86,11.62,0,1.53.23,2.83.7,3.91.46,1.08,1.01,1.62,1.64,1.62s1.47-.58,2.46-1.73c.99-1.15,1.85-2.86,2.58-5.11.73-2.26,1.09-5.03,1.09-8.31Z"/>
    <path class="cls-10" d="M915.67,150.02c-3.63,4.81-6.4,8.23-8.29,10.26s-3.44,3.05-4.64,3.05c-.95,0-1.83-.4-2.63-1.18-.8-.79-1.42-1.85-1.86-3.2-.44-1.34-.66-2.78-.66-4.3,0-1,.09-1.9.28-2.71.19-.8.54-1.69,1.07-2.65s1.22-2.01,2.09-3.14c.86-1.13,1.92-2.41,3.18-3.83.75-.88,1.38-1.62,1.9-2.22s1.02-1.01,1.5-1.22c.49-.21,1.28-.32,2.39-.32.8,0,1.57.11,2.29.32.73.21,1.09.43,1.09.66,0,.45-.37,1.27-1.11,2.44-.74,1.18-1.93,2.61-3.57,4.31-1.64,1.69-3.54,3.35-5.7,4.98-.48,1.48-.71,2.61-.71,3.38,0,1.08.41,1.62,1.24,1.62.3,0,.8-.26,1.5-.77.7-.51,1.89-1.5,3.55-2.97,1.67-1.47,3.16-2.76,4.49-3.89.98-.85,2.11-2.12,3.4-3.82,1.29-1.69,2.34-2.96,3.14-3.82,1.85-1.96,3.12-3.23,3.8-3.82.68-.59,1.33-.88,1.96-.88s1.01.19,1.22.56c.21.38.32,1.14.32,2.29,0,.53-.05.95-.15,1.28-.1.33-.31.75-.62,1.26-.31.51-.95,1.46-1.9,2.84-.95,1.38-2.08,3.01-3.38,4.89-.7,1-1.32,2.1-1.84,3.29-.53,1.19-.79,2.09-.79,2.69,0,1.3.51,1.96,1.54,1.96.85,0,1.84-.35,2.97-1.05,1.13-.7,2.86-1.97,5.19-3.8v2.52c-2.93,2.71-5.1,4.67-6.5,5.9-1.4,1.23-2.62,2.16-3.65,2.78-1.03.63-2.01.94-2.93.94-2.11,0-3.16-1.25-3.16-3.76,0-.95.31-2.24.94-3.85.63-1.62,1.64-3.95,3.05-7.01Z"/>
    <path class="cls-10" d="M952.93,145.77c-4.41,4.91-6.62,8.33-6.62,10.26,0,1.08.44,1.62,1.32,1.62.73,0,1.67-.38,2.84-1.15,1.17-.76,2.99-2.12,5.47-4.08v2.59c-3.56,3.51-6.29,6.04-8.2,7.59-1.91,1.55-3.46,2.33-4.66,2.33-2.06,0-3.08-1.35-3.08-4.06,0-.8.12-1.59.38-2.37.25-.78.59-1.58,1.03-2.43.44-.84,1.11-2.04,2.01-3.61.9-1.57,1.94-3.34,3.12-5.32-1.43.73-3.22,2.17-5.38,4.32-1.4,1.35-2.59,2.64-3.57,3.85-.98,1.22-2.02,2.57-3.14,4.06-1.12,1.49-1.93,2.49-2.44,3.01-.51.51-1.03.77-1.56.77-.8,0-1.54-.84-2.22-2.52-.68-1.68-1.01-3.63-1.01-5.87,0-1.38.16-2.46.47-3.23.31-.78.93-1.88,1.86-3.31,1.73-2.66,3.22-4.61,4.47-5.85,1.25-1.24,2.46-1.86,3.61-1.86.8,0,1.45.14,1.94.41.49.28.73.7.73,1.28,0,.25-.08.51-.23.79-.15.28-.32.53-.51.75-.19.23-.58.66-1.18,1.32-3.96,4.39-5.94,7.23-5.94,8.53,0,.73.24,1.09.71,1.09.3,0,.88-.48,1.75-1.45.87-.96,1.98-2.23,3.35-3.8,1.37-1.57,2.98-3.2,4.85-4.91,1.87-1.7,3.99-3.35,6.37-4.93,1.33-.93,2.43-1.39,3.31-1.39.4,0,.8.55,1.18,1.65.39,1.1.58,2.22.58,3.35,0,.55-.54,1.39-1.62,2.52Z"/>
    <path class="cls-10" d="M972.89,152.65c-2.21,2.51-4.18,4.64-5.92,6.39-1.74,1.75-3.16,3.06-4.25,3.93-1.09.86-1.84,1.3-2.24,1.3-.65,0-1.39-.53-2.2-1.58s-1.51-2.39-2.09-4.02c-.58-1.63-.86-3.28-.86-4.96,0-2.43,1.18-4.88,3.53-7.35,2.36-2.47,5.04-4.52,8.05-6.15,3.01-1.63,5.26-2.44,6.77-2.44,1.23,0,2.43.78,3.61,2.33,1.93-4.04,3.77-7.62,5.51-10.75,1.74-3.13,3.2-5.46,4.38-6.99,1.18-1.53,2.02-2.29,2.52-2.29.55,0,1.06.27,1.52.81s.7,1.15.7,1.82c0,1.3-.95,3.54-2.86,6.71-1.91,3.17-3.79,6.26-5.64,9.27-1.85,3.01-3.45,5.97-4.77,8.89-1.33,2.92-1.99,5.62-1.99,8.1,0,2.26.73,3.38,2.18,3.38.88,0,1.98-.49,3.31-1.48,1.33-.99,3.22-2.65,5.68-4.98v2.74c-5.41,6.99-9.59,10.49-12.52,10.49-1.18,0-2.02-.45-2.54-1.35-.51-.9-.77-2.24-.77-4.02,0-2.41.3-5,.9-7.78ZM975.67,143.47c-2.23.75-4.85,1.96-7.86,3.63s-4.83,2.81-5.45,3.44c-.55.5-1.04,1.44-1.47,2.82-.43,1.38-.64,2.42-.64,3.12,0,.43.13.78.38,1.05.25.28.56.41.94.41.35,0,.75-.15,1.2-.45s1.17-.89,2.16-1.77c.99-.88,1.63-1.44,1.94-1.69.43-.38,1.37-1.18,2.84-2.42,1.47-1.24,2.54-2.21,3.21-2.91.68-.7,1.25-1.49,1.73-2.35.48-.87.81-1.82,1.02-2.88Z"/>
    <path class="cls-10" d="M987.67,153.62v-.9c6.47-6.82,10.92-11.59,13.35-14.32.55-3.08,1.88-4.62,3.98-4.62.53,0,1.09.15,1.69.45l.23.71c-.1.3-.15.73-.15,1.28,0,.48.18,1.36.54,2.65.36,1.29.65,2.38.85,3.25.2.88.3,1.87.3,2.97,0,1.65-.38,3.24-1.13,4.76-.75,1.52-1.84,2.97-3.27,4.36-1.43,1.39-3.27,2.81-5.53,4.27.9.15,1.62.23,2.14.23,1.03,0,2.14-.26,3.33-.77s2.41-1.2,3.65-2.07c1.24-.86,2.69-1.99,4.34-3.36v2.52c-3.21,3.13-6.08,5.51-8.61,7.12-2.53,1.62-4.71,2.42-6.54,2.42-2.36,0-4.54-1-6.54-3.01-1.18-1.2-1.91-2.36-2.2-3.46-.29-1.1-.43-2.59-.43-4.47ZM1001.69,147.87l-.68-5.49c-1.55,1.75-4.88,5.13-9.96,10.11,1.5.33,2.53.76,3.08,1.32.55.55,1.33,1.62,2.33,3.2,1.7-.7,3.01-1.66,3.93-2.88.92-1.22,1.37-2.88,1.37-4.98,0-.25,0-.48-.02-.68-.01-.2-.03-.4-.06-.6Z"/>
    <path class="cls-10" d="M1011.69,153.62v-.9c6.47-6.82,10.92-11.59,13.35-14.32.55-3.08,1.88-4.62,3.98-4.62.53,0,1.09.15,1.69.45l.23.71c-.1.3-.15.73-.15,1.28,0,.48.18,1.36.54,2.65.36,1.29.65,2.38.85,3.25.2.88.3,1.87.3,2.97,0,1.65-.38,3.24-1.13,4.76-.75,1.52-1.84,2.97-3.27,4.36-1.43,1.39-3.27,2.81-5.53,4.27.9.15,1.62.23,2.14.23,1.03,0,2.14-.26,3.33-.77s2.41-1.2,3.65-2.07c1.24-.86,2.69-1.99,4.34-3.36v2.52c-3.21,3.13-6.08,5.51-8.61,7.12-2.53,1.62-4.71,2.42-6.54,2.42-2.36,0-4.54-1-6.54-3.01-1.18-1.2-1.91-2.36-2.2-3.46-.29-1.1-.43-2.59-.43-4.47ZM1025.72,147.87l-.68-5.49c-1.55,1.75-4.88,5.13-9.96,10.11,1.5.33,2.53.76,3.08,1.32.55.55,1.33,1.62,2.33,3.2,1.7-.7,3.01-1.66,3.93-2.88.92-1.22,1.37-2.88,1.37-4.98,0-.25,0-.48-.02-.68-.01-.2-.03-.4-.06-.6Z"/>
    <path class="cls-10" d="M1053.84,152.57v2.74c-2.43,3.13-4.7,5.5-6.81,7.09-2.11,1.59-3.9,2.39-5.38,2.39-2.06,0-3.58-1.08-4.59-3.23-1-2.16-1.5-4.51-1.5-7.07,0-.98.1-1.91.3-2.8.2-.89.44-1.62.71-2.2.28-.58.79-1.48,1.54-2.71,3.56-5.54,6.82-8.31,9.78-8.31,1.53,0,2.29.59,2.29,1.77,0,.8-.5,2.06-1.48,3.76-.99,1.7-1.87,2.92-2.65,3.65-2.18,2.11-3.6,3.57-4.27,4.4-.67.83-1,1.77-1,2.82,0,.9.34,1.65,1.01,2.26s1.55.9,2.63.9c1.18,0,2.47-.43,3.89-1.3,1.42-.87,3.25-2.25,5.51-4.15ZM1051.28,135.77c-.63,0-1.22-.24-1.79-.71-.56-.48-.85-1.08-.85-1.8,0-1.1.53-2.33,1.58-3.68s2.14-2.03,3.27-2.03c.75,0,1.38.23,1.88.7.5.46.75,1.13.75,2.01,0,1.08-.51,2.27-1.54,3.57-1.03,1.3-2.13,1.96-3.31,1.96Z"/>
    <path class="cls-10" d="M1081.85,152.57v2.52c-2.81,3.28-5.16,5.77-7.07,7.46-1.91,1.69-3.5,2.54-4.77,2.54s-2.34-.36-3.33-1.09-1.88-1.73-2.67-3.01c-.79-1.28-1.72-3.06-2.8-5.34-1.28,1.58-2.43,3.05-3.46,4.42-1.03,1.37-1.74,2.27-2.14,2.73-.4.45-.76.68-1.09.68-.68,0-1.17-.43-1.47-1.3-.3-.86-.45-2.12-.45-3.78,0-2.26.27-4.43.81-6.52.54-2.09,1.32-4.13,2.33-6.11,1.01-1.98,2.32-4.12,3.91-6.41,1.59-2.29,3.38-4.69,5.36-7.2,2.73-3.46,5.09-6.28,7.07-8.48,1.98-2.19,3.7-3.85,5.17-4.96,1.47-1.11,2.69-1.67,3.67-1.67,1.2,0,1.8.54,1.8,1.62,0,.93-2.22,4.27-6.65,10.02-4.44,5.75-10.9,13.6-19.4,23.55v3.23c5.69-6.09,10.27-10.61,13.74-13.57,3.47-2.96,6.16-4.44,8.06-4.44.78,0,1.38.46,1.8,1.37.43.92.64,1.97.64,3.18,0,2.46-1.05,4.73-3.16,6.82s-5.34,4.49-9.7,7.2c.75,1.13,1.42,1.95,1.99,2.46.58.51,1.3.77,2.18.77.78,0,1.62-.26,2.52-.79s1.82-1.19,2.76-1.99c.94-.8,2.39-2.11,4.34-3.91ZM1067,154.49c.95-.63,2.14-1.6,3.55-2.91,1.42-1.32,2.62-2.68,3.63-4.1,1-1.42,1.5-2.6,1.5-3.55,0-.4-.18-.6-.53-.6-.95,0-2.59.92-4.91,2.74-2.32,1.83-4.58,4.17-6.79,7.03.95,0,2.13.46,3.54,1.39Z"/>
    <path class="cls-10" d="M1109.97,152.57v2.52c-2.81,3.28-5.16,5.77-7.07,7.46-1.91,1.69-3.5,2.54-4.77,2.54s-2.34-.36-3.33-1.09-1.88-1.73-2.67-3.01c-.79-1.28-1.72-3.06-2.8-5.34-1.28,1.58-2.43,3.05-3.46,4.42-1.03,1.37-1.74,2.27-2.14,2.73-.4.45-.76.68-1.09.68-.68,0-1.17-.43-1.47-1.3-.3-.86-.45-2.12-.45-3.78,0-2.26.27-4.43.81-6.52.54-2.09,1.32-4.13,2.33-6.11,1.01-1.98,2.32-4.12,3.91-6.41,1.59-2.29,3.38-4.69,5.36-7.2,2.73-3.46,5.09-6.28,7.07-8.48,1.98-2.19,3.7-3.85,5.17-4.96,1.47-1.11,2.69-1.67,3.67-1.67,1.2,0,1.8.54,1.8,1.62,0,.93-2.22,4.27-6.65,10.02-4.44,5.75-10.9,13.6-19.4,23.55v3.23c5.69-6.09,10.27-10.61,13.74-13.57,3.47-2.96,6.16-4.44,8.06-4.44.78,0,1.38.46,1.8,1.37.43.92.64,1.97.64,3.18,0,2.46-1.05,4.73-3.16,6.82s-5.34,4.49-9.7,7.2c.75,1.13,1.42,1.95,1.99,2.46.58.51,1.3.77,2.18.77.78,0,1.62-.26,2.52-.79s1.82-1.19,2.76-1.99c.94-.8,2.39-2.11,4.34-3.91ZM1095.12,154.49c.95-.63,2.14-1.6,3.55-2.91,1.42-1.32,2.62-2.68,3.63-4.1,1-1.42,1.5-2.6,1.5-3.55,0-.4-.18-.6-.53-.6-.95,0-2.59.92-4.91,2.74-2.32,1.83-4.58,4.17-6.79,7.03.95,0,2.13.46,3.54,1.39Z"/>
    <path class="cls-10" d="M1115.76,153.93v.94c0,1.48.36,2.63,1.09,3.46.73.83,1.68,1.24,2.86,1.24s2.5-.29,3.82-.86c1.32-.58,2.63-1.34,3.93-2.29,1.3-.95,2.89-2.23,4.77-3.83v2.29c-2.83,3.41-5.49,6.02-7.97,7.84-2.48,1.82-5,2.73-7.56,2.73-2.23,0-4-.86-5.3-2.59-1.3-1.73-1.96-4.1-1.96-7.11,0-2.63.61-5.02,1.84-7.16,1.23-2.14,3.23-4.4,6.02-6.79,1.91-1.63,3.8-2.86,5.68-3.68s3.56-1.24,5.04-1.24c1.18,0,2.11.27,2.8.81.69.54,1.03,1.35,1.03,2.43,0,1.58-.59,3.15-1.77,4.72-1.18,1.57-2.98,3.12-5.39,4.66-2.42,1.54-5.4,3.03-8.93,4.46ZM1116.14,151.48c2.26-.88,4.19-1.97,5.79-3.27,1.6-1.3,2.79-2.55,3.55-3.74s1.15-2.06,1.15-2.61-.26-.86-.79-.86c-.45,0-1.18.29-2.2.86-1.02.58-2.04,1.33-3.08,2.26-1.04.93-1.97,2.02-2.8,3.27-.83,1.25-1.37,2.62-1.62,4.1Z"/>
    <path class="cls-10" d="M1131.85,155.47v-2.44c1.35-1.6,2.38-2.97,3.08-4.1-.8-.28-1.38-.61-1.75-1.02-.36-.4-.54-1-.54-1.8,0-.9.38-2.04,1.13-3.42.75-1.38,1.68-2.67,2.78-3.87,1.1-1.2,2.11-1.98,3.01-2.33.35-.18.69-.26,1.01-.26.5,0,.75.24.75.71,0,.43-.39,1.29-1.17,2.59,5.16-.8,8.42-1.2,9.78-1.2.53,0,.89.05,1.09.15.43.23.78.75,1.05,1.58.28.83.41,1.65.41,2.48,0,.53-.23,1.1-.7,1.71s-1.26,1.51-2.39,2.69c-1.33,1.43-2.44,2.98-3.35,4.66-.9,1.68-1.35,2.95-1.35,3.8,0,1.18.73,1.77,2.18,1.77,1.53,0,4.19-1.55,7.97-4.66v2.52c-2.08,2.18-3.8,3.9-5.15,5.15-1.35,1.25-2.61,2.25-3.76,2.99-1.15.74-2.18,1.11-3.08,1.11-1.05,0-1.93-.48-2.63-1.45-.7-.96-1.05-2.36-1.05-4.19,0-1.08.28-2.31.83-3.68.55-1.38,1.36-2.88,2.42-4.49,1.06-1.62,2.26-3.23,3.59-4.83-.7.15-1.49.31-2.37.47-.88.16-1.8.33-2.78.51-.98.18-1.73.31-2.26.41-1.55,3.11-3.81,5.93-6.77,8.46Z"/>
    <path class="cls-10" d="M1182.84,152.57v2.37c-2.18,2.23-4.07,4.05-5.66,5.47-1.59,1.42-2.98,2.49-4.17,3.21-1.19.73-2.2,1.09-3.03,1.09-1.96,0-2.93-1.15-2.93-3.46,0-1.85.61-4,1.82-6.45,1.22-2.44,2.96-5.32,5.25-8.63-1.13.63-2.19,1.35-3.2,2.16-1,.81-1.89,1.67-2.67,2.56-.78.89-1.43,1.65-1.96,2.27-1.63,1.83-3.2,3.7-4.7,5.62-1.5,1.92-2.52,3.17-3.05,3.74-.53.58-1.03.86-1.5.86-1.96,0-2.93-2.41-2.93-7.22,0-1.58.24-3.32.71-5.23.48-1.9,1.75-4.42,3.83-7.56,4.39-6.57,8.14-11.94,11.26-16.11,3.12-4.17,5.71-7.33,7.76-9.47,2.05-2.14,3.43-3.19,4.13-3.14.88.08,1.59.25,2.12.53.54.28.81.59.81.94,0,.63-.43,1.66-1.3,3.1-.86,1.44-2.35,3.69-4.46,6.75-2.28,3.23-3.9,5.51-4.85,6.82-.95,1.32-2.38,3.18-4.27,5.6-1.89,2.42-3.62,4.57-5.19,6.47-1.57,1.89-3.35,3.94-5.36,6.15v4.51c3.36-3.73,6.27-6.79,8.72-9.17,2.46-2.38,4.54-4.18,6.24-5.4,1.71-1.22,2.96-1.82,3.76-1.82.75,0,1.45.45,2.11,1.33.65.89.98,1.62.98,2.2,0,.25-.13.56-.38.94-1.8,2.16-3.24,3.94-4.3,5.36s-1.89,2.68-2.46,3.8c-.58,1.12-.86,2.07-.86,2.88,0,1.18.56,1.77,1.69,1.77,1.2,0,3.87-1.62,8.01-4.85Z"/>
    <path class="cls-10" d="M1188.85,153.93v.94c0,1.48.36,2.63,1.09,3.46.73.83,1.68,1.24,2.86,1.24s2.5-.29,3.82-.86c1.32-.58,2.63-1.34,3.93-2.29,1.3-.95,2.89-2.23,4.77-3.83v2.29c-2.83,3.41-5.49,6.02-7.97,7.84-2.48,1.82-5,2.73-7.56,2.73-2.23,0-4-.86-5.3-2.59-1.3-1.73-1.96-4.1-1.96-7.11,0-2.63.61-5.02,1.84-7.16,1.23-2.14,3.23-4.4,6.02-6.79,1.91-1.63,3.8-2.86,5.68-3.68s3.56-1.24,5.04-1.24c1.18,0,2.11.27,2.8.81.69.54,1.03,1.35,1.03,2.43,0,1.58-.59,3.15-1.77,4.72-1.18,1.57-2.98,3.12-5.39,4.66-2.42,1.54-5.4,3.03-8.93,4.46ZM1189.23,151.48c2.26-.88,4.19-1.97,5.79-3.27,1.6-1.3,2.79-2.55,3.55-3.74s1.15-2.06,1.15-2.61-.26-.86-.79-.86c-.45,0-1.18.29-2.2.86-1.02.58-2.04,1.33-3.08,2.26-1.04.93-1.97,2.02-2.8,3.27-.83,1.25-1.37,2.62-1.62,4.1Z"/>
    <path class="cls-10" d="M1222.5,152.65c-2.21,2.51-4.18,4.64-5.92,6.39-1.74,1.75-3.16,3.06-4.25,3.93-1.09.86-1.84,1.3-2.24,1.3-.65,0-1.39-.53-2.2-1.58s-1.51-2.39-2.09-4.02c-.58-1.63-.86-3.28-.86-4.96,0-2.43,1.18-4.88,3.53-7.35,2.36-2.47,5.04-4.52,8.05-6.15,3.01-1.63,5.26-2.44,6.77-2.44,1.23,0,2.43.78,3.61,2.33,1.93-4.04,3.77-7.62,5.51-10.75,1.74-3.13,3.2-5.46,4.38-6.99,1.18-1.53,2.02-2.29,2.52-2.29.55,0,1.06.27,1.52.81s.7,1.15.7,1.82c0,1.3-.95,3.54-2.86,6.71-1.91,3.17-3.79,6.26-5.64,9.27-1.85,3.01-3.45,5.97-4.77,8.89-1.33,2.92-1.99,5.62-1.99,8.1,0,2.26.73,3.38,2.18,3.38.88,0,1.98-.49,3.31-1.48,1.33-.99,3.22-2.65,5.68-4.98v2.74c-5.41,6.99-9.59,10.49-12.52,10.49-1.18,0-2.02-.45-2.54-1.35-.51-.9-.77-2.24-.77-4.02,0-2.41.3-5,.9-7.78ZM1225.28,143.47c-2.23.75-4.85,1.96-7.86,3.63s-4.83,2.81-5.45,3.44c-.55.5-1.04,1.44-1.47,2.82-.43,1.38-.64,2.42-.64,3.12,0,.43.13.78.38,1.05.25.28.56.41.94.41.35,0,.75-.15,1.2-.45s1.17-.89,2.16-1.77c.99-.88,1.63-1.44,1.94-1.69.43-.38,1.37-1.18,2.84-2.42,1.47-1.24,2.54-2.21,3.21-2.91.68-.7,1.25-1.49,1.73-2.35.48-.87.81-1.82,1.02-2.88Z"/>
    <path class="cls-10" d="M1272.17,164.11c-1.78,0-3.5-.55-5.15-1.65-1.65-1.1-2.98-2.63-3.99-4.59-1-1.96-1.5-4.14-1.5-6.54,0-3.21,1.22-6.13,3.67-8.76,2.44-2.63,6.05-5.23,10.81-7.78-.25-1.58-.38-2.69-.38-3.35,0-2.53.53-4.91,1.6-7.14,1.06-2.23,2.45-4.13,4.15-5.7,1.7-1.57,3.51-2.77,5.41-3.61,1.9-.84,3.72-1.26,5.45-1.26,2,0,3.62.48,4.85,1.45,1.23.97,1.84,2.21,1.84,3.74,0,2.03-.52,3.85-1.56,5.45-1.04,1.6-2.37,3.04-3.99,4.31-1.62,1.27-3.6,2.63-5.96,4.1-2.36,1.47-3.79,2.39-4.29,2.76.8,3.16,2.02,6.39,3.65,9.7,2.26-1.53,4.02-2.9,5.3-4.12,1.28-1.22,2.36-2.34,3.23-3.36.88-1.03,1.47-1.54,1.77-1.54.23,0,.41.28.56.83.15.55.22,1.15.22,1.8,0,1.53-.28,2.97-.83,4.32-.55,1.35-1.33,2.71-2.35,4.06-1.01,1.35-2.27,2.79-3.78,4.32l2.48,2.71c.23-.2.5-.49.83-.86.33-.38.58-.63.75-.77.17-.14.36-.21.56-.21.25,0,.44.1.58.3.14.2.21.43.21.68,0,1.03-.73,2.75-2.18,5.17-1.45,2.42-2.66,3.63-3.61,3.63-.5,0-.99-.21-1.47-.62-.48-.41-1.05-1.08-1.73-1.99-.68-.92-1.23-1.69-1.65-2.31-2.88,2.21-5.45,3.9-7.69,5.08-2.24,1.18-4.19,1.77-5.85,1.77ZM1277.24,139.71c-1.86,1.28-3.5,2.66-4.94,4.14-1.44,1.48-2.58,2.91-3.42,4.31-.84,1.39-1.26,2.55-1.26,3.48,0,1.85.84,2.78,2.52,2.78,1.23,0,2.89-.41,5-1.22s4.21-2,6.32-3.55c-1.1-2.56-2.51-5.87-4.21-9.93ZM1282.32,128.47v1.54c3.61-2.03,6.41-4.17,8.4-6.43,1.99-2.26,2.99-4.05,2.99-5.38,0-1.13-.56-1.69-1.69-1.69-1.03,0-2.33.61-3.91,1.82-1.58,1.22-2.94,2.75-4.08,4.59-1.14,1.84-1.71,3.69-1.71,5.55Z"/>
    <path class="cls-10" d="M1346.84,125.84c.68-.18,1.36-.35,2.05-.53.69-.18,1.39-.33,2.11-.45.71-.12,1.41-.19,2.09-.19,1.45,0,2.7.33,3.74.98,1.04.65,1.82,1.54,2.33,2.65.51,1.12.77,2.32.77,3.63,0,2.03-.37,4.36-1.11,6.97s-1.8,5.28-3.18,7.99c-1.38,2.71-3,5.26-4.85,7.67-2.53,3.26-5.57,5.88-9.12,7.88-3.55,1.99-6.8,2.99-9.76,2.99-2.18,0-4.11-.6-5.77-1.79-1.67-1.19-2.97-2.92-3.91-5.19-.94-2.27-1.41-4.93-1.41-7.99,0-4.11,1.12-8.23,3.37-12.35,2.24-4.12,5.08-7.86,8.5-11.2,3.42-3.35,6.87-6.03,10.36-8.05,3.48-2.02,6.32-3.03,8.5-3.03,1.78,0,3.15.54,4.1,1.64.95,1.09,1.84,2.85,2.67,5.28-2.33.08-4.36.36-6.09.85-1.73.49-3.52,1.23-5.38,2.24ZM1337.36,133.47c-1.75,1.88-3.53,4.31-5.32,7.27-1.79,2.97-3.24,5.88-4.34,8.74-1.1,2.86-1.65,5.04-1.65,6.54,0,3.73,1.74,5.6,5.23,5.6,2.43,0,5.57-1.64,9.42-4.93,3.85-3.28,7.19-7.24,10.04-11.86,2.84-4.62,4.27-8.83,4.27-12.61,0-2.78-1.1-4.17-3.31-4.17-1.7,0-3.78.68-6.24,2.03-2.46,1.35-4.81,3.27-7.07,5.75-.8.9-2.39,3.11-4.78,6.62.45-2.36,1.7-5.35,3.76-8.99Z"/>
    <path class="cls-10" d="M1362.1,155.73v-2.63c3.51-3.81,6.54-7.39,9.08-10.75,2.54-3.36,4.55-6.03,6.03-8.01,1.48-1.98,2.78-3.38,3.91-4.19,1.13-.81,2.54-1.22,4.25-1.22.85,0,1.28.33,1.28.98,0,.53-.34,1.3-1.03,2.33-.69,1.03-1.57,2.08-2.65,3.16-1.43,1.4-2.83,3.16-4.19,5.28-1.37,2.12-2.91,4.82-4.64,8.1,1.35-1.05,2.91-2.3,4.68-3.74,1.77-1.44,3.21-2.57,4.32-3.38,1.12-.81,2.22-1.46,3.31-1.94,1.09-.48,2.19-.71,3.29-.71.7,0,1.16.13,1.37.38.21.25.32.74.32,1.47,0,1.91-.46,3.77-1.39,5.58-.93,1.82-2.26,3.7-3.99,5.66-1.73,1.96-3.86,4.09-6.39,6.39.88.33,1.78.49,2.71.49,2.91,0,6.8-2.22,11.69-6.65v2.71c-1.91,1.7-3.77,3.31-5.58,4.81-1.82,1.5-3.53,2.71-5.13,3.61-1.6.9-3.08,1.35-4.44,1.35-.5,0-1.03-.06-1.6-.17-.56-.11-1.08-.25-1.56-.41-.48-.16-1.09-.39-1.84-.7s-1.33-.51-1.73-.64c-.8.2-1.25.3-1.35.3-.88,0-1.91-.35-3.08-1.05-.83,1.6-1.74,3.68-2.73,6.22-.99,2.54-1.82,4.57-2.5,6.07-.68,1.5-1.58,2.94-2.71,4.32-.63.63-1.07.94-1.32.94-1.08,0-1.62-.95-1.62-2.86,0-1.65.33-3.38,1-5.17s1.48-3.49,2.44-5.09c.97-1.6,2.02-3.23,3.18-4.87,1.15-1.64,1.97-2.86,2.44-3.67,3.96-6.82,7.04-12.62,9.25-17.41-5.77,7.02-10.13,12.06-13.08,15.11ZM1377.37,157.57c2.48-2.61,4.33-4.82,5.55-6.65,1.21-1.83,1.82-3.23,1.82-4.21,0-.93-.46-1.39-1.39-1.39-1.25,0-3.01,1.03-5.28,3.1-2.27,2.07-4.61,4.86-7.01,8.37,1.85-.2,3.1-.27,3.72-.21.63.06,1.49.39,2.59,1Z"/>
    <path class="cls-10" d="M1411.77,152.16v2.78c-5.24,6.94-9.5,10.41-12.78,10.41-1.78,0-3.18-.97-4.19-2.91-1.01-1.94-1.52-4.49-1.52-7.65,0-2.56.6-5.6,1.8-9.12s2.81-7.09,4.83-10.72c2.02-3.62,4.11-6.78,6.28-9.47,2.17-2.69,4.18-4.58,6.03-5.66.75-.45,1.34-.68,1.77-.68.53,0,.88.23,1.05.7.18.46.26,1.26.26,2.39,0,3.48-1.42,7.76-4.25,12.84-2.83,5.08-6.78,10.26-11.84,15.55-.25,1.3-.38,2.31-.38,3.01,0,1.6.34,2.91,1.03,3.91.69,1,1.65,1.5,2.88,1.5.63,0,1.3-.24,2.03-.73.73-.49,1.49-1.1,2.29-1.82.8-.73,2.37-2.17,4.7-4.32ZM1400.53,145.39c1.3-1.28,2.56-2.73,3.78-4.36,1.21-1.63,2.36-3.37,3.44-5.23,1.08-1.85,1.92-3.52,2.54-5,.61-1.48.92-2.59.92-3.35,0-.58-.2-.86-.6-.86-.15,0-.44.14-.87.41-1.53,1.25-3.25,3.7-5.15,7.35-1.91,3.65-3.26,7.33-4.06,11.04Z"/>
    <path class="cls-10" d="M1427.75,154.04l-6.69,5.68c-3.18,2.78-5.31,4.17-6.39,4.17-.98,0-2-1.12-3.08-3.37-1.08-2.24-1.62-4.2-1.62-5.88,0-1.43.22-2.64.66-3.63.44-.99,1.2-2.27,2.27-3.85,1.53-2.13,3-3.94,4.4-5.41,1.4-1.48,2.64-2.63,3.72-3.44,1.08-.81,1.83-1.22,2.26-1.22.68,0,1.33.35,1.97,1.05.64.7.96,1.43.96,2.18,0,.48-.34,1.24-1.03,2.29s-1.78,2.39-3.27,4c-1.49,1.62-3.57,3.55-6.22,5.81l-.71,2.07c-.2.4-.3.75-.3,1.05,0,.68.34,1.02,1.02,1.02s2.35-.89,4.94-2.67c2.59-1.78,5.41-4.17,8.44-7.18,1.18-1.18,2.16-2.22,2.93-3.12.78-.9,1.48-1.75,2.11-2.54.63-.79,1.15-1.38,1.56-1.79.41-.4.78-.61,1.11-.64.63-.08,1.12.19,1.47.79.35.6.53,1.49.53,2.67,0,.68-.3,1.52-.9,2.54-.6,1.01-1.73,2.74-3.38,5.19-1.65,2.44-3.3,4.98-4.94,7.59s-3.31,5.57-5.02,8.85c.07-.08.85-.83,2.31-2.26,1.47-1.43,3.01-2.92,4.64-4.47,1.63-1.55,2.97-2.8,4.02-3.74,1.05-.94,2.37-2.04,3.95-3.29v2.52c-3.38,3.63-6.45,7.08-9.19,10.34-2.75,3.26-4.86,5.87-6.35,7.82s-2.36,3.1-2.61,3.42c-.68.88-1.28,1.7-1.82,2.46-.54.76-.99,1.35-1.35,1.77-.36.41-.66.62-.88.62-.53,0-1-.52-1.41-1.56-.41-1.04-.62-1.96-.62-2.76,0-.73.14-1.37.41-1.92,1.8-4.06,5.85-11.12,12.14-21.17Z"/>
    <path class="cls-10" d="M1439.14,153.62v-.9c6.47-6.82,10.92-11.59,13.35-14.32.55-3.08,1.88-4.62,3.98-4.62.53,0,1.09.15,1.69.45l.23.71c-.1.3-.15.73-.15,1.28,0,.48.18,1.36.54,2.65.36,1.29.65,2.38.85,3.25.2.88.3,1.87.3,2.97,0,1.65-.38,3.24-1.13,4.76-.75,1.52-1.84,2.97-3.27,4.36-1.43,1.39-3.27,2.81-5.53,4.27.9.15,1.62.23,2.14.23,1.03,0,2.14-.26,3.33-.77s2.41-1.2,3.65-2.07c1.24-.86,2.69-1.99,4.34-3.36v2.52c-3.21,3.13-6.08,5.51-8.61,7.12-2.53,1.62-4.71,2.42-6.54,2.42-2.36,0-4.54-1-6.54-3.01-1.18-1.2-1.91-2.36-2.2-3.46-.29-1.1-.43-2.59-.43-4.47ZM1453.16,147.87l-.68-5.49c-1.55,1.75-4.88,5.13-9.96,10.11,1.5.33,2.53.76,3.08,1.32.55.55,1.33,1.62,2.33,3.2,1.7-.7,3.01-1.66,3.93-2.88.92-1.22,1.37-2.88,1.37-4.98,0-.25,0-.48-.02-.68-.01-.2-.03-.4-.06-.6Z"/>
    <path class="cls-10" d="M1488.66,145.77c-4.41,4.91-6.62,8.33-6.62,10.26,0,1.08.44,1.62,1.32,1.62.73,0,1.67-.38,2.84-1.15,1.17-.76,2.99-2.12,5.47-4.08v2.59c-3.56,3.51-6.29,6.04-8.2,7.59-1.91,1.55-3.46,2.33-4.66,2.33-2.06,0-3.08-1.35-3.08-4.06,0-.8.12-1.59.38-2.37.25-.78.59-1.58,1.03-2.43.44-.84,1.11-2.04,2.01-3.61.9-1.57,1.94-3.34,3.12-5.32-1.43.73-3.22,2.17-5.38,4.32-1.4,1.35-2.59,2.64-3.57,3.85-.98,1.22-2.02,2.57-3.14,4.06-1.12,1.49-1.93,2.49-2.44,3.01-.51.51-1.03.77-1.56.77-.8,0-1.54-.84-2.22-2.52-.68-1.68-1.01-3.63-1.01-5.87,0-1.38.16-2.46.47-3.23.31-.78.93-1.88,1.86-3.31,1.73-2.66,3.22-4.61,4.47-5.85,1.25-1.24,2.46-1.86,3.61-1.86.8,0,1.45.14,1.94.41.49.28.73.7.73,1.28,0,.25-.08.51-.23.79-.15.28-.32.53-.51.75-.19.23-.58.66-1.18,1.32-3.96,4.39-5.94,7.23-5.94,8.53,0,.73.24,1.09.71,1.09.3,0,.88-.48,1.75-1.45.87-.96,1.98-2.23,3.35-3.8,1.37-1.57,2.98-3.2,4.85-4.91,1.87-1.7,3.99-3.35,6.37-4.93,1.33-.93,2.43-1.39,3.31-1.39.4,0,.8.55,1.18,1.65.39,1.1.58,2.22.58,3.35,0,.55-.54,1.39-1.62,2.52Z"/>
    <path class="cls-10" d="M1509.41,152.57v2.74c-2.43,3.13-4.7,5.5-6.81,7.09-2.11,1.59-3.9,2.39-5.38,2.39-2.06,0-3.58-1.08-4.59-3.23-1-2.16-1.5-4.51-1.5-7.07,0-.98.1-1.91.3-2.8.2-.89.44-1.62.71-2.2.28-.58.79-1.48,1.54-2.71,3.56-5.54,6.82-8.31,9.78-8.31,1.53,0,2.29.59,2.29,1.77,0,.8-.5,2.06-1.48,3.76-.99,1.7-1.87,2.92-2.65,3.65-2.18,2.11-3.6,3.57-4.27,4.4-.67.83-1,1.77-1,2.82,0,.9.34,1.65,1.01,2.26s1.55.9,2.63.9c1.18,0,2.47-.43,3.89-1.3,1.42-.87,3.25-2.25,5.51-4.15ZM1506.85,135.77c-.63,0-1.22-.24-1.79-.71-.56-.48-.85-1.08-.85-1.8,0-1.1.53-2.33,1.58-3.68s2.14-2.03,3.27-2.03c.75,0,1.38.23,1.88.7.5.46.75,1.13.75,2.01,0,1.08-.51,2.27-1.54,3.57-1.03,1.3-2.13,1.96-3.31,1.96Z"/>
    <path class="cls-10" d="M1534.41,145.77c-4.41,4.91-6.62,8.33-6.62,10.26,0,1.08.44,1.62,1.32,1.62.73,0,1.67-.38,2.84-1.15,1.17-.76,2.99-2.12,5.47-4.08v2.59c-3.56,3.51-6.29,6.04-8.2,7.59-1.91,1.55-3.46,2.33-4.66,2.33-2.06,0-3.08-1.35-3.08-4.06,0-.8.12-1.59.38-2.37.25-.78.59-1.58,1.03-2.43.44-.84,1.11-2.04,2.01-3.61.9-1.57,1.94-3.34,3.12-5.32-1.43.73-3.22,2.17-5.38,4.32-1.4,1.35-2.59,2.64-3.57,3.85-.98,1.22-2.02,2.57-3.14,4.06-1.12,1.49-1.93,2.49-2.44,3.01-.51.51-1.03.77-1.56.77-.8,0-1.54-.84-2.22-2.52-.68-1.68-1.01-3.63-1.01-5.87,0-1.38.16-2.46.47-3.23.31-.78.93-1.88,1.86-3.31,1.73-2.66,3.22-4.61,4.47-5.85,1.25-1.24,2.46-1.86,3.61-1.86.8,0,1.45.14,1.94.41.49.28.73.7.73,1.28,0,.25-.08.51-.23.79-.15.28-.32.53-.51.75-.19.23-.58.66-1.18,1.32-3.96,4.39-5.94,7.23-5.94,8.53,0,.73.24,1.09.71,1.09.3,0,.88-.48,1.75-1.45.87-.96,1.98-2.23,3.35-3.8,1.37-1.57,2.98-3.2,4.85-4.91,1.87-1.7,3.99-3.35,6.37-4.93,1.33-.93,2.43-1.39,3.31-1.39.4,0,.8.55,1.18,1.65.39,1.1.58,2.22.58,3.35,0,.55-.54,1.39-1.62,2.52Z"/>
    <path class="cls-10" d="M1567.09,155.09l-12.48,10.26c-3.51,6.07-6.71,10.6-9.59,13.59-2.88,3-5.03,4.49-6.43,4.49-.75,0-1.13-.46-1.13-1.39,0-1.8.91-4.11,2.74-6.92.73-1.1,1.56-2.18,2.5-3.23.94-1.05,1.83-1.96,2.67-2.73.84-.76,1.95-1.72,3.33-2.86,1.38-1.14,2.32-1.92,2.82-2.35,2.51-5.11,4.31-9.02,5.41-11.73-2.36,2.51-4.41,4.56-6.17,6.17-1.75,1.6-3.36,2.84-4.83,3.7-1.47.87-2.79,1.3-3.97,1.3-1.28,0-2.46-1.02-3.54-3.06-1.08-2.04-1.62-4.14-1.62-6.3,0-1,.23-2.06.7-3.16.46-1.1,1.19-2.28,2.18-3.53.99-1.25,2.25-2.54,3.78-3.85,1.53-1.32,3.32-2.6,5.38-3.85,3.88-2.43,6.91-3.65,9.06-3.65,1.6,0,2.41.59,2.41,1.77,0,1.63-1.74,3.22-5.23,4.77-2.13.93-4.24,2.16-6.33,3.68-2.09,1.53-3.79,3.15-5.08,4.87s-1.94,3.26-1.94,4.64c0,.68.16,1.22.49,1.62.33.4.75.6,1.28.6.88,0,1.88-.4,3.01-1.2,1.13-.8,2.79-2.22,5-4.25,1-.93,2.34-2.43,4-4.49,1.67-2.07,3.04-3.65,4.14-4.74,1.09-1.09,2.07-1.64,2.95-1.64.5,0,.91.16,1.22.47.31.31.47.77.47,1.37,0,1.15-.46,2.83-1.37,5.02-.92,2.19-2.56,5.78-4.94,10.77l9.1-6.62v2.44Z"/>
  </g>
</svg>