<?xml version="1.0" encoding="UTF-8"?>
<svg id="Layer_1" xmlns="http://www.w3.org/2000/svg" xmlns:xlink="http://www.w3.org/1999/xlink" version="1.1" viewBox="0 0 933.99 586.77">
  <!-- Generator: Adobe Illustrator 30.0.0, SVG Export Plug-In . SVG Version: 2.1.1 Build 123)  -->
  <defs>
    <style>
      .st0 {
        fill: url(#linear-gradient2);
      }

      .st1 {
        fill: url(#linear-gradient1);
      }

      .st2 {
        fill: url(#linear-gradient9);
      }

      .st3 {
        fill: url(#linear-gradient3);
      }

      .st4 {
        fill: url(#linear-gradient6);
      }

      .st5 {
        fill: url(#linear-gradient8);
      }

      .st6 {
        fill: url(#linear-gradient7);
      }

      .st7 {
        fill: url(#linear-gradient5);
      }

      .st8 {
        fill: url(#linear-gradient4);
      }

      .st9 {
        fill: url(#linear-gradient31);
      }

      .st10 {
        fill: url(#linear-gradient30);
      }

      .st11 {
        fill: url(#linear-gradient32);
      }

      .st12 {
        fill: url(#linear-gradient28);
      }

      .st13 {
        fill: url(#linear-gradient29);
      }

      .st14 {
        fill: url(#linear-gradient18);
      }

      .st15 {
        fill: url(#linear-gradient13);
      }

      .st16 {
        fill: url(#linear-gradient12);
      }

      .st17 {
        fill: url(#linear-gradient15);
      }

      .st18 {
        fill: url(#linear-gradient16);
      }

      .st19 {
        fill: url(#linear-gradient11);
      }

      .st20 {
        fill: url(#linear-gradient10);
      }

      .st21 {
        fill: url(#linear-gradient17);
      }

      .st22 {
        fill: url(#linear-gradient14);
      }

      .st23 {
        fill: url(#linear-gradient19);
      }

      .st24 {
        fill: url(#linear-gradient23);
      }

      .st25 {
        fill: url(#linear-gradient22);
      }

      .st26 {
        fill: url(#linear-gradient24);
      }

      .st27 {
        fill: url(#linear-gradient25);
      }

      .st28 {
        fill: url(#linear-gradient21);
      }

      .st29 {
        fill: url(#linear-gradient20);
      }

      .st30 {
        fill: url(#linear-gradient27);
      }

      .st31 {
        fill: url(#linear-gradient26);
      }

      .st32 {
        fill: url(#linear-gradient);
      }
    </style>
    <linearGradient id="linear-gradient" x1="331.38" y1="341.91" x2="603.15" y2="341.91" gradientTransform="translate(346.29 -520.55) rotate(45.01) scale(1.35) skewX(.01)" gradientUnits="userSpaceOnUse">
      <stop offset="0" stop-color="#fff23a"/>
      <stop offset=".04" stop-color="#fee52c"/>
      <stop offset=".12" stop-color="#fdd41a"/>
      <stop offset=".2" stop-color="#fdc90e"/>
      <stop offset=".28" stop-color="#fdc60b"/>
      <stop offset=".67" stop-color="#f28f3f"/>
      <stop offset=".89" stop-color="#ed693c"/>
      <stop offset="1" stop-color="#e83e39"/>
    </linearGradient>
    <linearGradient id="linear-gradient1" x1="363.71" y1="373.65" x2="571.99" y2="373.65" gradientTransform="translate(376.75 -508.59) rotate(45.01) scale(1.35) skewX(.01)" xlink:href="#linear-gradient"/>
    <linearGradient id="linear-gradient2" x1="389.39" y1="398.3" x2="549.7" y2="398.3" gradientTransform="translate(400.64 -499.85) rotate(45.01) scale(1.35) skewX(.01)" xlink:href="#linear-gradient"/>
    <linearGradient id="linear-gradient3" x1="407.57" y1="324.87" x2="679.34" y2="324.87" gradientTransform="translate(360.19 -554.31) rotate(45.01) scale(1.35) skewX(.01)" xlink:href="#linear-gradient"/>
    <linearGradient id="linear-gradient4" x1="439.89" y1="356.61" x2="648.18" y2="356.61" gradientTransform="translate(372.51 -546.01) rotate(45.01) scale(1.35) skewX(.01)" xlink:href="#linear-gradient"/>
    <linearGradient id="linear-gradient5" x1="465.58" y1="381.26" x2="625.88" y2="381.26" gradientTransform="translate(382.23 -539.8) rotate(45.01) scale(1.35) skewX(.01)" xlink:href="#linear-gradient"/>
    <linearGradient id="linear-gradient6" x1="473.9" y1="291.28" x2="745.67" y2="291.28" gradientTransform="translate(347.78 -528.75) rotate(45.01) scale(1.35) skewX(.01)" xlink:href="#linear-gradient"/>
    <linearGradient id="linear-gradient7" x1="506.22" y1="323.02" x2="714.51" y2="323.02" gradientTransform="translate(346.04 -530.54) rotate(45.01) scale(1.35) skewX(.01)" xlink:href="#linear-gradient"/>
    <linearGradient id="linear-gradient8" x1="531.91" y1="347.67" x2="692.22" y2="347.67" gradientTransform="translate(344.65 -531.89) rotate(45.01) scale(1.35) skewX(.01)" xlink:href="#linear-gradient"/>
    <linearGradient id="linear-gradient9" x1="498.23" y1="206.01" x2="770" y2="206.01" gradientTransform="translate(290.68 -396) rotate(45.01) scale(1.35) skewX(.01)" xlink:href="#linear-gradient"/>
    <linearGradient id="linear-gradient10" x1="530.55" y1="237.75" x2="738.84" y2="237.75" gradientTransform="translate(280.64 -410.94) rotate(45.01) scale(1.35) skewX(.01)" xlink:href="#linear-gradient"/>
    <linearGradient id="linear-gradient11" x1="556.24" y1="262.4" x2="716.55" y2="262.4" gradientTransform="translate(272.57 -422.36) rotate(45.01) scale(1.35) skewX(.01)" xlink:href="#linear-gradient"/>
    <linearGradient id="linear-gradient12" x1="538.36" y1="342.46" x2="810.13" y2="342.46" gradientTransform="translate(150.71 1221.04) rotate(-45.01) scale(1.35 -1.35) skewX(.01)" xlink:href="#linear-gradient"/>
    <linearGradient id="linear-gradient13" x1="570.69" y1="374.2" x2="778.97" y2="374.2" gradientTransform="translate(179.6 1294.58) rotate(-45.01) scale(1.35 -1.35) skewX(.01)" xlink:href="#linear-gradient"/>
    <linearGradient id="linear-gradient14" x1="596.37" y1="398.85" x2="756.68" y2="398.85" gradientTransform="translate(200.69 1352.24) rotate(-45.01) scale(1.35 -1.35) skewX(.01)" xlink:href="#linear-gradient"/>
    <linearGradient id="linear-gradient15" x1="595.41" y1="237.9" x2="867.18" y2="237.9" gradientTransform="translate(-105.86 1198.36) rotate(-45.01) scale(1.35 -1.35) skewX(.01)" xlink:href="#linear-gradient"/>
    <linearGradient id="linear-gradient16" x1="627.73" y1="269.64" x2="836.02" y2="269.64" gradientTransform="translate(-58.83 1268.23) rotate(-45.01) scale(1.35 -1.35) skewX(.01)" xlink:href="#linear-gradient"/>
    <linearGradient id="linear-gradient17" x1="653.41" y1="294.29" x2="813.72" y2="294.29" gradientTransform="translate(-23.58 1323.38) rotate(-45.01) scale(1.35 -1.35) skewX(.01)" xlink:href="#linear-gradient"/>
    <linearGradient id="linear-gradient18" x1="611.92" y1="137.01" x2="883.69" y2="137.01" gradientTransform="translate(-300.42 1174.73) rotate(-45.01) scale(1.35 -1.35) skewX(.01)" xlink:href="#linear-gradient"/>
    <linearGradient id="linear-gradient19" x1="644.24" y1="168.75" x2="852.53" y2="168.75" gradientTransform="translate(-239.33 1234.53) rotate(-45.01) scale(1.35 -1.35) skewX(.01)" xlink:href="#linear-gradient"/>
    <linearGradient id="linear-gradient20" x1="669.93" y1="193.4" x2="830.24" y2="193.4" gradientTransform="translate(-192.96 1282.1) rotate(-45.01) scale(1.35 -1.35) skewX(.01)" xlink:href="#linear-gradient"/>
    <linearGradient id="linear-gradient21" x1="571.97" y1="12.59" x2="843.74" y2="12.59" gradientTransform="translate(-428.13 1092.87) rotate(-45.01) scale(1.35 -1.35) skewX(.01)" xlink:href="#linear-gradient"/>
    <linearGradient id="linear-gradient22" x1="604.29" y1="44.33" x2="812.58" y2="44.33" gradientTransform="translate(-358.74 1139.51) rotate(-45.01) scale(1.35 -1.35) skewX(.01)" xlink:href="#linear-gradient"/>
    <linearGradient id="linear-gradient23" x1="629.97" y1="68.98" x2="790.28" y2="68.98" gradientTransform="translate(-305.69 1177.02) rotate(-45.01) scale(1.35 -1.35) skewX(.01)" xlink:href="#linear-gradient"/>
    <linearGradient id="linear-gradient24" x1="485.19" y1="306.81" x2="756.34" y2="306.81" gradientTransform="translate(361.08 -558.33) rotate(45.75) scale(1.34) skewX(1.5)" xlink:href="#linear-gradient"/>
    <linearGradient id="linear-gradient25" x1="517.51" y1="338.55" x2="725.18" y2="338.55" gradientTransform="translate(359.33 -560.07) rotate(45.75) scale(1.34) skewX(1.5)" xlink:href="#linear-gradient"/>
    <linearGradient id="linear-gradient26" x1="543.19" y1="363.2" x2="702.9" y2="363.2" gradientTransform="translate(357.93 -561.4) rotate(45.75) scale(1.34) skewX(1.5)" xlink:href="#linear-gradient"/>
    <linearGradient id="linear-gradient27" x1="-10.33" y1="156.38" x2="262.21" y2="156.38" gradientTransform="translate(312.35 605.98) rotate(-45.25) scale(1.36 -1.36) skewX(.51)" xlink:href="#linear-gradient"/>
    <linearGradient id="linear-gradient28" x1="20.76" y1="188.13" x2="229.81" y2="188.13" gradientTransform="translate(375.96 664.05) rotate(-45.25) scale(1.36 -1.36) skewX(.51)" xlink:href="#linear-gradient"/>
    <linearGradient id="linear-gradient29" x1="46.07" y1="212.78" x2="207.14" y2="212.78" gradientTransform="translate(423.17 711.48) rotate(-45.25) scale(1.36 -1.36) skewX(.51)" xlink:href="#linear-gradient"/>
    <linearGradient id="linear-gradient30" x1="338.47" y1="338.42" x2="609.58" y2="338.42" gradientTransform="translate(342.22 -530.06) rotate(45.74) scale(1.34) skewX(1.48)" xlink:href="#linear-gradient"/>
    <linearGradient id="linear-gradient31" x1="370.8" y1="370.16" x2="578.42" y2="370.16" gradientTransform="translate(372.65 -518.56) rotate(45.74) scale(1.34) skewX(1.48)" xlink:href="#linear-gradient"/>
    <linearGradient id="linear-gradient32" x1="393.83" y1="397.3" x2="553.48" y2="397.3" gradientTransform="translate(397.81 -506.73) rotate(45.74) scale(1.34) skewX(1.48)" xlink:href="#linear-gradient"/>
  </defs>
  <path class="st32" d="M450.36,73.5h193.61v188.08c0,92.14-74.81,166.95-166.95,166.95h-188v-193.69c0-89.05,72.3-161.34,161.34-161.34Z" transform="translate(-40.86 403.38) rotate(-45)"/>
  <path class="st1" d="M481.92,145.94h132.05v128.72c0,92.14-74.81,166.95-166.95,166.95h-126.44v-134.32c0-89.05,72.3-161.34,161.34-161.34Z" transform="translate(-70.87 416.46) rotate(-45)"/>
  <path class="st0" d="M506.24,203.17h86.2v84.95c0,89.77-72.88,162.65-162.65,162.65h-84.9v-86.26c0-89.05,72.3-161.34,161.34-161.34Z" transform="translate(-93.93 427.17) rotate(-45)"/>
  <path class="st3" d="M553.03,96.09h193.61v188.08c0,92.14-74.81,166.95-166.95,166.95h-188v-193.69c0-89.05,72.3-161.34,161.34-161.34Z" transform="translate(-59.25 211.17) rotate(-20)"/>
  <path class="st8" d="M566.46,164.85h132.05v128.72c0,92.14-74.81,166.95-166.95,166.95h-126.44v-134.32c0-89.05,72.3-161.34,161.34-161.34Z" transform="translate(-73.67 207.59) rotate(-20)"/>
  <path class="st7" d="M576.61,219.57h86.2v84.95c0,89.77-72.88,162.65-162.65,162.65h-84.9v-86.26c0-89.05,72.3-161.34,161.34-161.34Z" transform="translate(-84.93 205.07) rotate(-20)"/>
  <path class="st4" d="M635.79,152.83h193.61v188.08c0,92.14-74.81,166.95-166.95,166.95h-188v-193.69c0-89.05,72.3-161.34,161.34-161.34Z" transform="translate(20.37 -37.44) rotate(3.34)"/>
  <path class="st6" d="M635.15,211.52h132.05v128.72c0,92.14-74.81,166.95-166.95,166.95h-126.44v-134.32c0-89.05,72.3-161.34,161.34-161.34Z" transform="translate(22 -35.56) rotate(3.34)"/>
  <path class="st5" d="M634.19,258.66h86.2v84.95c0,89.77-72.88,162.65-162.65,162.65h-84.9v-86.26c0-89.05,72.3-161.34,161.34-161.34Z" transform="translate(23.31 -34.13) rotate(3.34)"/>
  <path class="st2" d="M683.06,227.53h193.61v188.08c0,92.14-74.81,166.95-166.95,166.95h-188v-193.69c0-89.05,72.3-161.34,161.34-161.34Z" transform="translate(228.58 -251.8) rotate(24.3)"/>
  <path class="st20" d="M674.13,273.07h132.05v128.72c0,92.14-74.81,166.95-166.95,166.95h-126.44v-134.32c0-89.05,72.3-161.34,161.34-161.34Z" transform="translate(231.58 -234.06) rotate(24.3)"/>
  <path class="st19" d="M666.48,310.14h86.2v84.95c0,89.77-72.88,162.65-162.65,162.65h-84.9v-86.26c0-89.05,72.3-161.34,161.34-161.34Z" transform="translate(234.24 -220.33) rotate(24.3)"/>
  <path class="st16" d="M290.02,74.27h188c92.14,0,166.95,74.81,166.95,166.95v188.08h-193.61c-89.05,0-161.34-72.3-161.34-161.34V74.27h0Z" transform="translate(620.03 760.4) rotate(-135)"/>
  <path class="st15" d="M320.02,146.71h126.44c92.14,0,166.95,74.81,166.95,166.95v128.72h-132.05c-89.05,0-161.34-72.3-161.34-161.34v-134.32h0Z" transform="translate(588.46 832.83) rotate(-135)"/>
  <path class="st22" d="M341.54,203.94h84.9c89.77,0,162.65,72.88,162.65,162.65v84.95h-86.2c-89.05,0-161.34-72.3-161.34-161.34v-86.26h0Z" transform="translate(562.59 888.52) rotate(-135)"/>
  <path class="st17" d="M187.34,96.86h188c92.14,0,166.95,74.81,166.95,166.95v188.08h-193.61c-89.05,0-161.34-72.3-161.34-161.34V96.86h0Z" transform="translate(613.8 656.98) rotate(-160)"/>
  <path class="st18" d="M235.48,165.62h126.44c92.14,0,166.95,74.81,166.95,166.95v128.72h-132.05c-89.05,0-161.34-72.3-161.34-161.34v-134.32h0Z" transform="translate(634.1 738.72) rotate(-160)"/>
  <path class="st21" d="M271.17,220.34h84.9c89.77,0,162.65,72.88,162.65,162.65v84.95h-86.2c-89.05,0-161.34-72.3-161.34-161.34v-86.26h0Z" transform="translate(648.37 802.6) rotate(-160)"/>
  <path class="st14" d="M104.59,153.6h188c92.14,0,166.95,74.81,166.95,166.95v188.08h-193.61c-89.05,0-161.34-72.3-161.34-161.34v-193.69h0Z" transform="translate(582.96 645.23) rotate(176.66)"/>
  <path class="st23" d="M166.79,212.29h126.44c92.14,0,166.95,74.81,166.95,166.95v128.72h-132.05c-89.05,0-161.34-72.3-161.34-161.34v-134.32h0Z" transform="translate(647.44 701.36) rotate(176.66)"/>
  <path class="st29" d="M213.59,259.43h84.9c89.77,0,162.65,72.88,162.65,162.65v84.95h-86.2c-89.05,0-161.34-72.3-161.34-161.34v-86.26h0Z" transform="translate(696.5 746.15) rotate(176.66)"/>
  <path class="st28" d="M57.32,228.3h188c92.14,0,166.95,74.81,166.95,166.95v188.08h-193.61c-89.05,0-161.34-72.3-161.34-161.34v-193.69h0Z" transform="translate(615.77 679.09) rotate(155.7)"/>
  <path class="st25" d="M127.81,273.84h126.44c92.14,0,166.95,74.81,166.95,166.95v128.72h-132.05c-89.05,0-161.34-72.3-161.34-161.34v-134.32h0Z" transform="translate(698.2 693.05) rotate(155.7)"/>
  <path class="st24" d="M181.3,310.91h84.9c89.77,0,162.65,72.88,162.65,162.65v84.95h-86.2c-89.05,0-161.34-72.3-161.34-161.34v-86.26h0Z" transform="translate(761.99 705.41) rotate(155.7)"/>
  <path class="st26" d="M642.44,153.34h186.88v190.5c0,92.14-74.81,166.95-166.95,166.95h-181.27v-196.11c0-89.05,72.3-161.34,161.34-161.34Z" transform="translate(20.47 -37.63) rotate(3.34)"/>
  <path class="st27" d="M641.77,212.47h126.49v130.74c0,92.14-74.81,166.95-166.95,166.95h-120.88v-136.34c0-89.05,72.3-161.34,161.34-161.34Z" transform="translate(22.12 -35.78) rotate(3.34)"/>
  <path class="st31" d="M640.79,259.97h81.51v86.64c0,89.77-72.88,162.65-162.65,162.65h-80.2v-87.95c0-89.05,72.3-161.34,161.34-161.34Z" transform="translate(23.44 -34.37) rotate(3.34)"/>
  <path class="st30" d="M106.02,153.37h189.17c92.14,0,166.95,74.81,166.95,166.95v192.34h-194.78c-89.05,0-161.34-72.3-161.34-161.34v-197.94h0Z" transform="translate(587.1 648.9) rotate(176.66)"/>
  <path class="st12" d="M169.55,211.51h127.41c92.14,0,166.95,74.81,166.95,166.95v132.26h-133.01c-89.05,0-161.34-72.3-161.34-161.34v-137.87h0Z" transform="translate(653.98 703.16) rotate(176.66)"/>
  <path class="st13" d="M216.85,258.86h85.71c89.77,0,162.65,72.88,162.65,162.65v87.92h-87.02c-89.05,0-161.34-72.3-161.34-161.34v-89.23h0Z" transform="translate(703.88 747.76) rotate(176.66)"/>
  <path class="st10" d="M456.97,70.76h186.76v190.25c0,92.14-74.81,166.95-166.95,166.95h-181.15v-195.86c0-89.05,72.3-161.34,161.34-161.34Z" transform="translate(-38.76 405.15) rotate(-45)"/>
  <path class="st9" d="M488.48,143.11h126.39v130.52c0,92.14-74.81,166.95-166.95,166.95h-120.78v-136.13c0-89.05,72.3-161.34,161.34-161.34Z" transform="translate(-68.41 418.53) rotate(-45)"/>
  <path class="st11" d="M509.27,203.57h81.43v86.46c0,89.77-72.88,162.65-162.65,162.65h-80.12v-87.77c0-89.05,72.3-161.34,161.34-161.34Z" transform="translate(-94.56 427.96) rotate(-45)"/>
</svg>