<?xml version="1.0" encoding="UTF-8"?>
<svg id="Layer_1" xmlns="http://www.w3.org/2000/svg" xmlns:xlink="http://www.w3.org/1999/xlink" version="1.1" viewBox="0 0 1887.18 229.28">
  <!-- Generator: Adobe Illustrator 30.0.0, SVG Export Plug-In . SVG Version: 2.1.1 Build 123)  -->
  <defs>
    <style>
      .st0 {
        fill: url(#linear-gradient2);
      }

      .st1 {
        fill: url(#linear-gradient1);
      }

      .st2 {
        fill: url(#linear-gradient9);
      }

      .st3 {
        fill: url(#linear-gradient3);
      }

      .st4 {
        fill: url(#linear-gradient6);
      }

      .st5 {
        fill: url(#linear-gradient8);
      }

      .st6 {
        fill: url(#linear-gradient7);
      }

      .st7 {
        fill: url(#linear-gradient5);
      }

      .st8 {
        fill: url(#linear-gradient4);
      }

      .st9 {
        fill: url(#linear-gradient31);
      }

      .st10 {
        fill: url(#linear-gradient30);
      }

      .st11 {
        fill: url(#linear-gradient32);
      }

      .st12 {
        fill: url(#linear-gradient28);
      }

      .st13 {
        fill: url(#linear-gradient29);
      }

      .st14 {
        fill: url(#linear-gradient18);
      }

      .st15 {
        fill: url(#linear-gradient13);
      }

      .st16 {
        fill: url(#linear-gradient12);
      }

      .st17 {
        fill: url(#linear-gradient15);
      }

      .st18 {
        fill: url(#linear-gradient16);
      }

      .st19 {
        fill: url(#linear-gradient11);
      }

      .st20 {
        fill: url(#linear-gradient10);
      }

      .st21 {
        fill: url(#linear-gradient17);
      }

      .st22 {
        fill: url(#linear-gradient14);
      }

      .st23 {
        fill: url(#linear-gradient19);
      }

      .st24 {
        fill: url(#linear-gradient23);
      }

      .st25 {
        fill: url(#linear-gradient22);
      }

      .st26 {
        fill: url(#linear-gradient24);
      }

      .st27 {
        fill: url(#linear-gradient25);
      }

      .st28 {
        fill: url(#linear-gradient21);
      }

      .st29 {
        fill: url(#linear-gradient20);
      }

      .st30 {
        fill: url(#linear-gradient27);
      }

      .st31 {
        fill: url(#linear-gradient26);
      }

      .st32 {
        fill: url(#linear-gradient);
      }

      .st33 {
        fill: #fff;
        font-family: MyriadPro-Regular, 'Myriad Pro';
        font-size: 77px;
      }
    </style>
    <linearGradient id="linear-gradient" x1="320.48" y1="208.05" x2="423.86" y2="208.05" gradientTransform="translate(-324.3 -182.19) scale(1.35) skewX(.01)" gradientUnits="userSpaceOnUse">
      <stop offset="0" stop-color="#fff23a"/>
      <stop offset=".04" stop-color="#fee52c"/>
      <stop offset=".12" stop-color="#fdd41a"/>
      <stop offset=".2" stop-color="#fdc90e"/>
      <stop offset=".28" stop-color="#fdc60b"/>
      <stop offset=".67" stop-color="#f28f3f"/>
      <stop offset=".89" stop-color="#ed693c"/>
      <stop offset="1" stop-color="#e83e39"/>
    </linearGradient>
    <linearGradient id="linear-gradient1" x1="332.77" y1="220.45" x2="412" y2="220.45" xlink:href="#linear-gradient"/>
    <linearGradient id="linear-gradient2" x1="342.54" y1="230.08" x2="403.52" y2="230.08" xlink:href="#linear-gradient"/>
    <linearGradient id="linear-gradient3" x1="378.32" y1="442.45" x2="482.21" y2="442.45" gradientTransform="translate(-57.3 -678.39) rotate(25.01) scale(1.35) skewX(.01)" xlink:href="#linear-gradient"/>
    <linearGradient id="linear-gradient4" x1="390.8" y1="454.8" x2="470.43" y2="454.8" gradientTransform="translate(-57.3 -678.39) rotate(25.01) scale(1.35) skewX(.01)" xlink:href="#linear-gradient"/>
    <linearGradient id="linear-gradient5" x1="400.72" y1="464.39" x2="462" y2="464.39" gradientTransform="translate(-57.3 -678.39) rotate(25.01) scale(1.35) skewX(.01)" xlink:href="#linear-gradient"/>
    <linearGradient id="linear-gradient6" x1="524.63" y1="632.18" x2="629.59" y2="632.18" gradientTransform="translate(367.19 -1018.09) rotate(48.35) scale(1.35) skewX(.01)" xlink:href="#linear-gradient"/>
    <linearGradient id="linear-gradient7" x1="537.27" y1="644.4" x2="617.72" y2="644.4" gradientTransform="translate(367.19 -1018.09) rotate(48.35) scale(1.35) skewX(.01)" xlink:href="#linear-gradient"/>
    <linearGradient id="linear-gradient8" x1="547.32" y1="653.89" x2="609.23" y2="653.89" gradientTransform="translate(367.19 -1018.09) rotate(48.35) scale(1.35) skewX(.01)" xlink:href="#linear-gradient"/>
    <linearGradient id="linear-gradient9" x1="692.11" y1="704.53" x2="797.96" y2="704.53" gradientTransform="translate(798.74 -1116.47) rotate(69.3) scale(1.35) skewX(.01)" xlink:href="#linear-gradient"/>
    <linearGradient id="linear-gradient10" x1="704.81" y1="716.65" x2="785.93" y2="716.65" gradientTransform="translate(798.74 -1116.47) rotate(69.3) scale(1.35) skewX(.01)" xlink:href="#linear-gradient"/>
    <linearGradient id="linear-gradient11" x1="714.9" y1="726.06" x2="777.33" y2="726.06" gradientTransform="translate(798.74 -1116.47) rotate(69.3) scale(1.35) skewX(.01)" xlink:href="#linear-gradient"/>
    <linearGradient id="linear-gradient12" x1="1642.88" y1="208.13" x2="1746.26" y2="208.13" gradientTransform="translate(2460.74 -182.19) rotate(179.99) scale(1.35 -1.35) skewX(.01)" xlink:href="#linear-gradient"/>
    <linearGradient id="linear-gradient13" x1="1655.17" y1="220.53" x2="1734.4" y2="220.53" gradientTransform="translate(2460.74 -182.19) rotate(179.99) scale(1.35 -1.35) skewX(.01)" xlink:href="#linear-gradient"/>
    <linearGradient id="linear-gradient14" x1="1664.94" y1="230.17" x2="1725.92" y2="230.17" gradientTransform="translate(2460.74 -182.19) rotate(179.99) scale(1.35 -1.35) skewX(.01)" xlink:href="#linear-gradient"/>
    <linearGradient id="linear-gradient15" x1="1576.98" y1="-116.35" x2="1680.87" y2="-116.35" gradientTransform="translate(2193.75 -678.39) rotate(154.99) scale(1.35 -1.35) skewX(.01)" xlink:href="#linear-gradient"/>
    <linearGradient id="linear-gradient16" x1="1589.46" y1="-104" x2="1669.08" y2="-104" gradientTransform="translate(2193.75 -678.39) rotate(154.99) scale(1.35 -1.35) skewX(.01)" xlink:href="#linear-gradient"/>
    <linearGradient id="linear-gradient17" x1="1599.38" y1="-94.41" x2="1660.66" y2="-94.41" gradientTransform="translate(2193.75 -678.39) rotate(154.99) scale(1.35 -1.35) skewX(.01)" xlink:href="#linear-gradient"/>
    <linearGradient id="linear-gradient18" x1="1403.88" y1="-355.77" x2="1508.84" y2="-355.77" gradientTransform="translate(1769.26 -1018.09) rotate(131.65) scale(1.35 -1.35) skewX(.01)" xlink:href="#linear-gradient"/>
    <linearGradient id="linear-gradient19" x1="1416.52" y1="-343.54" x2="1496.97" y2="-343.54" gradientTransform="translate(1769.26 -1018.09) rotate(131.65) scale(1.35 -1.35) skewX(.01)" xlink:href="#linear-gradient"/>
    <linearGradient id="linear-gradient20" x1="1426.57" y1="-334.05" x2="1488.49" y2="-334.05" gradientTransform="translate(1769.26 -1018.09) rotate(131.65) scale(1.35 -1.35) skewX(.01)" xlink:href="#linear-gradient"/>
    <linearGradient id="linear-gradient21" x1="1159.99" y1="-532.44" x2="1265.84" y2="-532.44" gradientTransform="translate(1337.71 -1116.47) rotate(110.7) scale(1.35 -1.35) skewX(.01)" xlink:href="#linear-gradient"/>
    <linearGradient id="linear-gradient22" x1="1172.69" y1="-520.32" x2="1253.81" y2="-520.32" gradientTransform="translate(1337.71 -1116.47) rotate(110.7) scale(1.35 -1.35) skewX(.01)" xlink:href="#linear-gradient"/>
    <linearGradient id="linear-gradient23" x1="1182.78" y1="-510.91" x2="1245.21" y2="-510.91" gradientTransform="translate(1337.71 -1116.47) rotate(110.7) scale(1.35 -1.35) skewX(.01)" xlink:href="#linear-gradient"/>
    <linearGradient id="linear-gradient24" x1="525.54" y1="657.44" x2="630.25" y2="657.44" gradientTransform="translate(392.19 -1048.94) rotate(49.09) scale(1.34) skewX(1.5)" xlink:href="#linear-gradient"/>
    <linearGradient id="linear-gradient25" x1="538.18" y1="669.66" x2="618.39" y2="669.66" gradientTransform="translate(392.19 -1048.94) rotate(49.09) scale(1.34) skewX(1.5)" xlink:href="#linear-gradient"/>
    <linearGradient id="linear-gradient26" x1="548.23" y1="679.16" x2="609.9" y2="679.16" gradientTransform="translate(392.19 -1048.94) rotate(49.09) scale(1.34) skewX(1.5)" xlink:href="#linear-gradient"/>
    <linearGradient id="linear-gradient27" x1="781.76" y1="-335.57" x2="887.01" y2="-335.57" gradientTransform="translate(1196.25 -415.38) rotate(131.4) scale(1.36 -1.36) skewX(.51)" xlink:href="#linear-gradient"/>
    <linearGradient id="linear-gradient28" x1="793.92" y1="-323.35" x2="874.66" y2="-323.35" gradientTransform="translate(1196.25 -415.38) rotate(131.4) scale(1.36 -1.36) skewX(.51)" xlink:href="#linear-gradient"/>
    <linearGradient id="linear-gradient29" x1="803.83" y1="-313.86" x2="866.03" y2="-313.86" gradientTransform="translate(1196.25 -415.38) rotate(131.4) scale(1.36 -1.36) skewX(.51)" xlink:href="#linear-gradient"/>
    <linearGradient id="linear-gradient30" x1="322.79" y1="212.14" x2="425.92" y2="212.14" gradientTransform="translate(-326.34 -192.87) rotate(.74) scale(1.34) skewX(1.48)" xlink:href="#linear-gradient"/>
    <linearGradient id="linear-gradient31" x1="335.08" y1="224.54" x2="414.06" y2="224.54" gradientTransform="translate(-326.34 -192.87) rotate(.74) scale(1.34) skewX(1.48)" xlink:href="#linear-gradient"/>
    <linearGradient id="linear-gradient32" x1="343.84" y1="235.15" x2="404.57" y2="235.15" gradientTransform="translate(-326.34 -192.87) rotate(.74) scale(1.34) skewX(1.48)" xlink:href="#linear-gradient"/>
  </defs>
  <path class="st32" d="M177.46,196.17l50.57-51.95c24.8-25.48,24.8-66.78,0-92.26L177.44,0l-52.08,53.5c-23.97,24.62-23.97,64.54,0,89.16l52.1,53.52Z"/>
  <path class="st1" d="M178.06,196.17l34.01-34.94c24.8-25.48,24.8-66.78,0-92.26l-34.62-35.56-35.52,36.49c-23.97,24.62-23.97,64.54,0,89.16l36.13,37.11Z"/>
  <path class="st0" d="M178.29,196.17l22.84-23.46c24.16-24.82,24.16-65.06,0-89.88l-22.85-23.47-23.19,23.82c-23.97,24.62-23.97,64.54,0,89.16l23.2,23.83Z"/>
  <path class="st3" d="M176.16,195.81l67.2-25.13c32.96-12.32,49.95-49.76,37.96-83.61l-24.47-69.06-69.21,25.88c-31.85,11.91-48.28,48.09-36.68,80.81l25.2,71.12Z"/>
  <path class="st8" d="M176.7,196.07l45.2-16.9c32.96-12.32,49.95-49.76,37.96-83.61l-16.75-47.26-47.2,17.65c-31.85,11.91-48.28,48.09-36.68,80.81l17.48,49.32Z"/>
  <path class="st7" d="M176.91,196.17l30.35-11.35c32.11-12.01,48.67-48.48,36.98-81.46l-11.05-31.19-30.81,11.52c-31.85,11.91-48.28,48.09-36.68,80.81l11.22,31.67Z"/>
  <path class="st4" d="M176.65,194.29l71.39,4.28c35.01,2.1,65.06-25.35,67.1-61.32l4.17-73.37-73.52-4.41c-33.84-2.03-62.87,24.5-64.85,59.26l-4.29,75.55Z"/>
  <path class="st6" d="M177.05,194.74l48.02,2.88c35.01,2.1,65.06-25.35,67.1-61.32l2.85-50.21-50.15-3.01c-33.84-2.03-62.87,24.5-64.85,59.26l-2.98,52.4Z"/>
  <path class="st5" d="M177.2,194.92l32.24,1.93c34.11,2.05,63.38-24.7,65.37-59.74l1.88-33.14-32.74-1.96c-33.84-2.03-62.87,24.5-64.85,59.26l-1.91,33.65Z"/>
  <path class="st2" d="M176.65,192.96l65.18,30.23c31.97,14.82,69.58.22,84.01-32.62l29.44-66.98-67.13-31.13c-30.89-14.33-67.25-.21-81.19,31.52l-30.31,68.98Z"/>
  <path class="st20" d="M176.86,193.53l43.84,20.33c31.97,14.82,69.58.22,84.01-32.62l20.15-45.84-45.78-21.23c-30.89-14.33-67.25-.21-81.19,31.52l-21.02,47.84Z"/>
  <path class="st19" d="M176.95,193.76l29.43,13.65c31.14,14.44,67.79.21,81.85-31.78l13.3-30.25-29.89-13.86c-30.89-14.33-67.25-.21-81.19,31.52l-13.5,30.72Z"/>
  <path class="st16" d="M177.82,196.47l-50.57-51.95c-24.8-25.48-24.8-66.78,0-92.26L177.85.3l52.08,53.5c23.97,24.62,23.97,64.54,0,89.16l-52.1,53.52Z"/>
  <path class="st15" d="M177.23,196.47l-34.01-34.94c-24.8-25.48-24.8-66.78,0-92.26l34.62-35.56,35.52,36.49c23.97,24.62,23.97,64.54,0,89.16l-36.13,37.11Z"/>
  <path class="st22" d="M177,196.47l-22.84-23.46c-24.16-24.82-24.16-65.06,0-89.88l22.85-23.47,23.19,23.82c23.97,24.62,23.97,64.54,0,89.16l-23.2,23.83Z"/>
  <path class="st17" d="M179.12,196.11l-67.2-25.13c-32.96-12.32-49.95-49.76-37.96-83.61l24.47-69.06,69.21,25.88c31.85,11.91,48.28,48.09,36.68,80.81l-25.2,71.12Z"/>
  <path class="st18" d="M178.58,196.37l-45.2-16.9c-32.96-12.32-49.95-49.76-37.96-83.61l16.75-47.26,47.2,17.65c31.85,11.91,48.28,48.09,36.68,80.81l-17.48,49.32Z"/>
  <path class="st21" d="M178.37,196.47l-30.35-11.35c-32.11-12.01-48.67-48.48-36.98-81.46l11.05-31.19,30.81,11.52c31.85,11.91,48.28,48.09,36.68,80.81l-11.22,31.67Z"/>
  <path class="st14" d="M178.63,194.59l-71.39,4.28c-35.01,2.1-65.06-25.35-67.1-61.32l-4.17-73.37,73.52-4.41c33.84-2.03,62.87,24.5,64.85,59.26l4.29,75.55Z"/>
  <path class="st23" d="M178.24,195.04l-48.02,2.88c-35.01,2.1-65.06-25.35-67.1-61.32l-2.85-50.21,50.15-3.01c33.84-2.03,62.87,24.5,64.85,59.26l2.98,52.4Z"/>
  <path class="st29" d="M178.08,195.22l-32.24,1.93c-34.11,2.05-63.38-24.7-65.37-59.74l-1.88-33.14,32.74-1.96c33.84-2.03,62.87,24.5,64.85,59.26l1.91,33.65Z"/>
  <path class="st28" d="M178.63,193.26l-65.18,30.23c-31.97,14.82-69.58.22-84.01-32.62L0,123.89l67.13-31.13c30.89-14.33,67.25-.21,81.19,31.52l30.31,68.98Z"/>
  <path class="st25" d="M178.42,193.83l-43.84,20.33c-31.97,14.82-69.58.22-84.01-32.62l-20.15-45.84,45.78-21.23c30.89-14.33,67.25-.21,81.19,31.52l21.02,47.84Z"/>
  <path class="st24" d="M178.34,194.06l-29.43,13.65c-31.14,14.44-67.79.21-81.85-31.78l-13.3-30.25,29.89-13.86c30.89-14.33,67.25-.21,81.19,31.52l13.5,30.72Z"/>
  <path class="st26" d="M179.16,195.51l68.84,4.13c35.01,2.1,65.06-25.35,67.1-61.32l4.22-74.31-70.97-4.26c-33.84-2.03-62.87,24.5-64.85,59.26l-4.35,76.5Z"/>
  <path class="st27" d="M179.54,195.97l45.9,2.75c35.01,2.1,65.06-25.35,67.1-61.32l2.9-51-48.03-2.88c-33.84-2.03-62.87,24.5-64.85,59.26l-3.02,53.19Z"/>
  <path class="st31" d="M179.69,196.15l30.46,1.83c34.11,2.05,63.38-24.7,65.37-59.74l1.92-33.8-30.95-1.86c-33.84-2.03-62.87,24.5-64.85,59.26l-1.95,34.31Z"/>
  <path class="st30" d="M179.67,196.15l-71.84,4.31c-35.01,2.1-65.06-25.35-67.1-61.32l-4.26-75.03,73.97-4.44c33.84-2.03,62.87,24.5,64.85,59.26l4.39,77.22Z"/>
  <path class="st12" d="M179.69,196.12l-48.38,2.9c-35.01,2.1-65.06-25.35-67.1-61.32l-2.93-51.59,50.51-3.03c33.84-2.03,62.87,24.5,64.85,59.26l3.06,53.78Z"/>
  <path class="st13" d="M179.66,196.15l-32.55,1.95c-34.11,2.05-63.38-24.7-65.37-59.74l-1.95-34.3,33.05-1.98c33.84-2.03,62.87,24.5,64.85,59.26l1.98,34.81Z"/>
  <path class="st10" d="M179.89,194.88l48.73-50.05c24.8-25.48,24.8-66.78,0-92.26L177.44,0l-50.23,51.6c-23.97,24.62-23.97,64.54,0,89.16l52.68,54.12Z"/>
  <path class="st9" d="M180.48,194.89l32.49-33.37c24.8-25.48,24.8-66.78,0-92.26l-35.11-36.06-34,34.92c-23.97,24.62-23.97,64.54,0,89.16l36.62,37.61Z"/>
  <path class="st11" d="M179.38,196.17l21.55-22.14c24.16-24.82,24.16-65.06,0-89.88l-23.26-23.89-21.9,22.5c-23.97,24.62-23.97,64.54,0,89.16l23.61,24.25Z"/>
  <text class="st33" transform="translate(367.19 164.42)"><tspan x="0" y="0">Ministeriet for Samfundssikkerhed &amp; Oplysning</tspan></text>
</svg>