<?xml version="1.0" encoding="UTF-8"?>
<svg id="Layer_1" xmlns="http://www.w3.org/2000/svg" xmlns:xlink="http://www.w3.org/1999/xlink" version="1.1" viewBox="0 0 1920 1080">
  <!-- Generator: Adobe Illustrator 30.0.0, SVG Export Plug-In . SVG Version: 2.1.1 Build 123)  -->
  <defs>
    <style>
      .st0 {
        stroke: #fcee21;
        stroke-width: 3px;
      }

      .st0, .st1, .st2, .st3, .st4, .st5, .st6, .st7, .st8, .st9, .st10, .st11, .st12, .st13 {
        stroke-miterlimit: 10;
      }

      .st0, .st1, .st3, .st12 {
        stroke-linecap: round;
      }

      .st1 {
        stroke: #231f20;
      }

      .st1, .st14 {
        fill: #fff;
      }

      .st2 {
        fill: #4d4d4d;
      }

      .st2, .st13 {
        stroke: #000;
      }

      .st15, .st12 {
        fill: lime;
      }

      .st16 {
        fill: #fcee21;
      }

      .st17 {
        fill: url(#Summer);
      }

      .st3 {
        stroke: #603813;
      }

      .st3, .st18 {
        fill: #754c24;
      }

      .st19 {
        fill: #39b54a;
      }

      .st4 {
        stroke: url(#Summer2);
      }

      .st4, .st5, .st6, .st7, .st8, .st9, .st10, .st11 {
        fill: none;
      }

      .st4, .st5, .st6, .st7, .st8, .st9, .st10, .st11, .st13 {
        stroke-width: 5px;
      }

      .st5 {
        stroke: url(#Summer8);
      }

      .st6 {
        stroke: url(#Summer7);
      }

      .st7 {
        stroke: url(#Summer6);
      }

      .st8 {
        stroke: url(#Summer5);
      }

      .st9 {
        stroke: url(#Summer3);
      }

      .st10 {
        stroke: url(#Summer4);
      }

      .st11 {
        stroke: url(#Summer1);
      }

      .st20 {
        fill: #f2f2f2;
      }

      .st12 {
        stroke: #4d4d4d;
      }

      .st21 {
        fill: #42210b;
      }
    </style>
    <radialGradient id="Summer" cx="560.29" cy="159.99" fx="560.29" fy="159.99" r="52.76" gradientUnits="userSpaceOnUse">
      <stop offset="0" stop-color="#fff"/>
      <stop offset=".09" stop-color="#ffecd8"/>
      <stop offset=".21" stop-color="#ffd4a7"/>
      <stop offset=".33" stop-color="#ffc07d"/>
      <stop offset=".46" stop-color="#ffb05a"/>
      <stop offset=".59" stop-color="#ffa340"/>
      <stop offset=".72" stop-color="#ff9a2d"/>
      <stop offset=".86" stop-color="#ff9421"/>
      <stop offset="1" stop-color="#ff931e"/>
    </radialGradient>
    <radialGradient id="Summer1" data-name="Summer" cx="564.68" cy="51.02" fx="564.68" fy="51.02" r="40.08" xlink:href="#Summer"/>
    <radialGradient id="Summer2" data-name="Summer" cx="662.65" cy="80.29" fx="662.65" fy="80.29" r="43.86" xlink:href="#Summer"/>
    <radialGradient id="Summer3" data-name="Summer" cx="679.25" cy="174.4" fx="679.25" fy="174.4" r="39.72" xlink:href="#Summer"/>
    <radialGradient id="Summer4" data-name="Summer" cx="638.1" cy="249.79" fx="638.1" fy="249.79" r="46.16" xlink:href="#Summer"/>
    <radialGradient id="Summer5" data-name="Summer" cx="540.82" cy="263.52" fx="540.82" fy="263.52" r="35.58" xlink:href="#Summer"/>
    <radialGradient id="Summer6" data-name="Summer" cx="454.02" cy="207.22" fx="454.02" fy="207.22" r="38.97" xlink:href="#Summer"/>
    <radialGradient id="Summer7" data-name="Summer" cx="437.37" cy="134.32" fx="437.37" fy="134.32" r="39.61" xlink:href="#Summer"/>
    <radialGradient id="Summer8" data-name="Summer" cx="477.78" cy="72.28" fx="477.78" fy="72.28" r="38.9" xlink:href="#Summer"/>
  </defs>
  <g>
    <path class="st15" d="M941.6,307.49c-77.85,0-141.18-66.17-141.18-147.5S863.75,12.49,941.6,12.49s141.18,66.17,141.18,147.5-63.33,147.5-141.18,147.5Z"/>
    <path d="M941.6,14.99c37,0,71.8,15.06,97.99,42.39,26.24,27.4,40.69,63.84,40.69,102.61s-14.45,75.21-40.69,102.61c-26.19,27.34-60.98,42.39-97.99,42.39s-71.8-15.06-97.99-42.39c-26.24-27.4-40.69-63.84-40.69-102.61s14.45-75.21,40.69-102.61c26.19-27.34,60.98-42.39,97.99-42.39M941.6,9.99c-79.35,0-143.68,67.16-143.68,150s64.33,150,143.68,150,143.68-67.16,143.68-150S1020.95,9.99,941.6,9.99h0Z"/>
  </g>
  <g>
    <rect class="st21" x="785.95" y="967.15" width="146.56" height="59.93" rx="9" ry="9"/>
    <path d="M923.51,968.15c4.41,0,8,3.59,8,8v41.93c0,4.41-3.59,8-8,8h-128.56c-4.41,0-8-3.59-8-8v-41.93c0-4.41,3.59-8,8-8h128.56M923.51,966.15h-128.56c-5.52,0-10,4.48-10,10v41.93c0,5.52,4.48,10,10,10h128.56c5.52,0,10-4.48,10-10v-41.93c0-5.52-4.48-10-10-10h0Z"/>
  </g>
  <g>
    <rect class="st21" x="951.15" y="967.15" width="146.56" height="59.93" rx="9" ry="9"/>
    <path d="M1088.71,968.15c4.41,0,8,3.59,8,8v41.93c0,4.41-3.59,8-8,8h-128.56c-4.41,0-8-3.59-8-8v-41.93c0-4.41,3.59-8,8-8h128.56M1088.71,966.15h-128.56c-5.52,0-10,4.48-10,10v41.93c0,5.52,4.48,10,10,10h128.56c5.52,0,10-4.48,10-10v-41.93c0-5.52-4.48-10-10-10h0Z"/>
  </g>
  <g>
    <rect x="844.25" y="650.9" width="86.76" height="312.75"/>
    <path d="M928.51,653.4v307.75h-81.76v-307.75h81.76M933.51,648.4h-91.76v317.75h91.76v-317.75h0Z"/>
  </g>
  <g>
    <rect x="952.65" y="650.9" width="86.75" height="312.75"/>
    <path d="M1036.91,653.4v307.75h-81.76v-307.75h81.76M1041.91,648.4h-91.76v317.75h91.76v-317.75h0Z"/>
  </g>
  <g>
    <rect x="843.79" y="269.2" width="195.61" height="376.7"/>
    <path d="M1036.91,271.7v371.7h-190.61v-371.7h190.61M1041.91,266.7h-200.61v381.7h200.61v-381.7h0Z"/>
  </g>
  <g>
    <rect class="st14" x="1044.41" y="269.2" width="68.92" height="268.3"/>
    <path class="st20" d="M1110.83,271.7v263.3h-63.92v-263.3h63.92M1115.83,266.7h-73.92v273.3h73.92v-273.3h0Z"/>
  </g>
  <g>
    <rect class="st14" x="685.33" y="184.82" width="68.92" height="237.91" transform="translate(415.16 1023.2) rotate(-89.93)"/>
    <path class="st20" d="M603.38,271.67l232.91.28-.08,63.92-232.91-.28.08-63.92M598.38,266.66l-.09,73.92,242.91.29.09-73.92-242.91-.29h0Z"/>
  </g>
  <g>
    <rect class="st15" x="1043.36" y="542.5" width="71.02" height="71.02"/>
    <path class="st19" d="M1111.88,545v66.02h-66.02v-66.02h66.02M1116.88,540h-76.02v76.02h76.02v-76.02h0Z"/>
  </g>
  <g>
    <rect class="st15" x="524.78" y="269.16" width="71.02" height="69.21"/>
    <path class="st19" d="M593.29,271.66v64.21h-66.02v-64.21h66.02M598.29,266.66h-76.02v74.21h76.02v-74.21h0Z"/>
  </g>
  <g>
    <rect class="st18" x="524.78" y="254.16" width="71.02" height="10"/>
    <path class="st18" d="M593.29,256.66v5h-66.02v-5h66.02M598.29,251.66h-76.02v15h76.02v-15h0Z"/>
  </g>
  <g>
    <rect class="st18" x="447.79" y="244.16" width="225" height="5"/>
    <polygon class="st18" points="675.29 241.66 445.29 241.66 445.29 251.66 675.29 251.66 675.29 241.66 675.29 241.66"/>
  </g>
  <g>
    <path d="M907.02,168.78c-13,0-30.45-14.51-42.45-35.29-14.55-25.19-16.62-52.38-4.52-59.36,1.94-1.12,4.2-1.69,6.7-1.69,13,0,30.45,14.51,42.44,35.29,14.55,25.19,16.62,52.38,4.52,59.36-1.94,1.12-4.2,1.69-6.7,1.69Z"/>
    <path d="M866.76,74.95h0c5.51,0,12.42,3.14,19.46,8.85,7.72,6.26,14.92,14.97,20.82,25.19,7.12,12.33,11.39,25.23,12.03,36.32.56,9.73-1.84,16.88-6.59,19.62-1.56.9-3.39,1.35-5.45,1.35-5.51,0-12.42-3.14-19.46-8.85-7.72-6.26-14.92-14.97-20.82-25.19-7.12-12.33-11.39-25.23-12.03-36.32-.56-9.73,1.84-16.88,6.59-19.62,1.56-.9,3.39-1.35,5.46-1.35M866.76,69.95c-2.9,0-5.58.65-7.95,2.02-13.52,7.81-11.91,35.91,3.6,62.78,12.79,22.15,31.02,36.54,44.61,36.54,2.9,0,5.58-.65,7.95-2.02,13.52-7.81,11.91-35.91-3.6-62.78-12.79-22.15-31.02-36.54-44.61-36.54h0Z"/>
  </g>
  <g>
    <path d="M972.21,168.37c-3.98,0-7.41-1.01-10.22-2.99-13.39-9.46-9.11-39.52,9.34-65.66,14.26-20.19,33.76-33.76,48.53-33.76,3.97,0,7.41,1.01,10.22,2.99,13.39,9.46,9.11,39.52-9.34,65.66-14.26,20.19-33.76,33.76-48.53,33.76Z"/>
    <path d="M1019.85,68.46h0c3.45,0,6.4.85,8.78,2.53,5.48,3.87,7.83,12.39,6.44,23.36-1.55,12.26-7.37,26.04-16.38,38.81-13.81,19.56-32.49,32.7-46.49,32.7-3.45,0-6.4-.85-8.78-2.53-5.48-3.87-7.83-12.39-6.44-23.36,1.55-12.26,7.37-26.04,16.38-38.81,13.81-19.56,32.49-32.7,46.49-32.7M1019.85,63.46c-15.18,0-35.36,13.28-50.57,34.82-19.6,27.76-23.51,58.71-8.74,69.14,3.31,2.34,7.28,3.45,11.66,3.45,15.18,0,35.36-13.28,50.57-34.82,19.6-27.76,23.51-58.71,8.74-69.14-3.31-2.34-7.28-3.45-11.66-3.45h0Z"/>
  </g>
  <g>
    <path d="M861.58,204.43c-1.64,1.81-5.69,6.29-9.7,10.72s-7.74,8.56-9.27,10.24c-.42-.38-.84-.76-1.27-1.15l18.97-20.96,1.27,1.15Z"/>
    <path d="M860.32,203.28l-18.97,20.96c.42.38.84.76,1.27,1.15,1.53-1.69,5.38-5.94,9.27-10.24,4.01-4.43,8.06-8.91,9.7-10.72l-1.27-1.15h0Z"/>
  </g>
  <polygon class="st13" points="869.23 224.52 896.37 235.94 942.06 241.22 968.74 241.22 983.06 235.56 993.24 229.91 1006.81 222.37 1024.15 210.31 859.05 217.85 869.23 224.52"/>
  <g>
    <path d="M1040.67,216.71c-1.68-1.77-5.85-6.14-9.97-10.46-4.01-4.2-7.96-8.35-9.53-10,.41-.39.82-.79,1.24-1.18l19.5,20.46-1.24,1.18Z"/>
    <path d="M1022.4,195.06c-.41.39-.82.79-1.24,1.18,1.57,1.65,5.53,5.8,9.53,10,4.12,4.32,8.29,8.7,9.97,10.46l1.24-1.18-19.5-20.46h0Z"/>
  </g>
  <g>
    <ellipse class="st16" cx="560.29" cy="159.99" rx="55.88" ry="49.45"/>
    <path class="st17" d="M560.29,115.54c28.05,0,50.88,19.94,50.88,44.45s-22.82,44.45-50.88,44.45-50.88-19.94-50.88-44.45,22.82-44.45,50.88-44.45M560.29,110.54c-30.86,0-55.88,22.14-55.88,49.45s25.02,49.45,55.88,49.45,55.88-22.14,55.88-49.45-25.02-49.45-55.88-49.45h0Z"/>
  </g>
  <path class="st11" d="M540.93,86.64c13.22,7.56,28.29,11.87,43.51,12.44,3.74-9.58,3.39-20.19,2.98-30.46-.07-1.82-.18-3.75-1.23-5.24-1.08-1.54-2.95-2.29-4.74-2.9-11.76-4-24.48-5.15-36.76-3.33-3.43-10.24-4.27-21.6-.71-31.79s11.94-18.96,22.44-21.45c2.2-.52,4.45-.77,6.7-1.02"/>
  <path class="st4" d="M615.43,112.21c7.56,6.86,21.57,3.84,25.63-5.52,4.36-10.04-2.17-21.49-1.29-32.4.97-12,11.08-21.69,22.37-25.87,11.3-4.18,23.67-3.94,35.71-3.64,4.7.12,10.85,1.51,11.2,6.2"/>
  <path class="st9" d="M629.64,153.64c.85,8.02,2.63,16.95,9.31,21.45,5.92,3.99,13.98,3.11,20.52.22s12.14-7.49,18.39-10.96,13.72-5.79,20.51-3.55c4.63,1.53,8.34,4.98,11.84,8.37,7.64,7.4,15.32,15.36,18.76,25.43"/>
  <path class="st10" d="M608.28,193.82c-1.2,10.02-1.97,21.48,4.92,28.85,8.24,8.81,22.61,6.88,33.73,11.56,12.31,5.17,19.72,18.46,21.34,31.71s-1.61,26.59-5.32,39.41"/>
  <path class="st8" d="M551.4,216.77c.22,4.9.31,9.8.28,14.71-.02,2.32-.08,4.71-1.01,6.83-1.16,2.66-3.54,4.57-5.97,6.15-3.68,2.41-7.67,4.34-11.84,5.73-2.54.84-5.37,1.65-6.81,3.9-1.09,1.7-1.13,3.85-1.02,5.86,1.11,20.46,14.41,39.79,33.12,48.14"/>
  <path class="st7" d="M501.37,190.18c-7.12-2.21-14.23-4.43-21.35-6.64-1.68-.52-3.5-1.05-5.16-.48-1.94.65-3.12,2.58-4.09,4.39-4.29,8.04-7.59,16.6-12.34,24.37s-11.26,14.91-19.79,18.11c-10.53,3.94-23.31.84-30.87-7.48"/>
  <path class="st6" d="M487.85,133.73c1.35-2.81-.26-6.36-2.86-8.09s-5.88-2.05-9-2.04c-7.68.02-15.34,1.69-22.34,4.86-10.26,4.65-18.93,12.42-29.38,16.62-5.19,2.09-10.75,3.26-16.35,3.44-3.55.11-7.33-.25-10.21-2.34-2.54-1.85-4.03-4.78-5.42-7.6-3.21-6.52-6.51-13.48-5.8-20.71"/>
  <path class="st5" d="M514.6,108.77c2.51-6.44.2-14.08-4.54-19.12s-11.49-7.76-18.28-8.99c-10.51-1.91-21.78-.71-31.45-5.25-14.47-6.8-20.67-24.51-20.38-40.49"/>
  <polygon class="st1" points="895.22 266.7 987.98 266.7 941.6 383.21 895.22 266.7"/>
  <rect class="st12" x="941.13" y="382.39" width=".95" height="147.28"/>
  <rect class="st3" x="841.83" y="528.85" width="199.58" height="11.15"/>
  <rect class="st0" x="931.31" y="528.42" width="20.58" height="12"/>
  <circle class="st2" cx="941.6" cy="397.77" r="5.67"/>
  <circle class="st2" cx="941.6" cy="443.72" r="5.67"/>
  <circle class="st2" cx="941.6" cy="494.7" r="5.67"/>
</svg>