<?xml version="1.0" encoding="UTF-8"?>
<svg id="Layer_1" xmlns="http://www.w3.org/2000/svg" xmlns:xlink="http://www.w3.org/1999/xlink" version="1.1" viewBox="0 0 811.47 1027.67">
  <!-- Generator: Adobe Illustrator 30.0.0, SVG Export Plug-In . SVG Version: 2.1.1 Build 123)  -->
  <defs>
    <style>
      .st0 {
        stroke: #fcee21;
        stroke-width: 3px;
      }

      .st0, .st1, .st2, .st3, .st4, .st5, .st6, .st7, .st8, .st9, .st10, .st11, .st12, .st13, .st14, .st15 {
        stroke-miterlimit: 10;
      }

      .st0, .st1, .st4, .st13 {
        stroke-linecap: round;
      }

      .st1, .st16 {
        fill: #fff;
      }

      .st1, .st15 {
        stroke: #231f20;
      }

      .st17 {
        font-family: ArialMT, Arial;
        font-size: 48px;
      }

      .st17, .st18 {
        isolation: isolate;
      }

      .st19 {
        fill: url(#radial-gradient);
      }

      .st2 {
        fill: #4d4d4d;
      }

      .st2, .st3, .st14 {
        stroke: #000;
      }

      .st20, .st13 {
        fill: lime;
      }

      .st21 {
        fill: #fcee21;
      }

      .st3, .st15 {
        fill: #ee2525;
        stroke-width: 6px;
      }

      .st4 {
        stroke: #603813;
      }

      .st4, .st22 {
        fill: #754c24;
      }

      .st23 {
        fill: #39b54a;
      }

      .st5 {
        stroke: url(#radial-gradient6);
      }

      .st5, .st6, .st7, .st8, .st9, .st10, .st11, .st12 {
        fill: none;
      }

      .st5, .st6, .st7, .st8, .st9, .st10, .st11, .st12, .st14 {
        stroke-width: 5px;
      }

      .st6 {
        stroke: url(#radial-gradient5);
      }

      .st7 {
        stroke: url(#radial-gradient2);
      }

      .st8 {
        stroke: url(#radial-gradient3);
      }

      .st9 {
        stroke: url(#radial-gradient8);
      }

      .st10 {
        stroke: url(#radial-gradient7);
      }

      .st11 {
        stroke: url(#radial-gradient4);
      }

      .st12 {
        stroke: url(#radial-gradient1);
      }

      .st24 {
        fill: #f2f2f2;
      }

      .st13 {
        stroke: #4d4d4d;
      }

      .st25 {
        fill: #42210b;
      }
    </style>
    <radialGradient id="radial-gradient" cx="176.4" cy="159.58" fx="176.4" fy="159.58" r="52.76" gradientUnits="userSpaceOnUse">
      <stop offset="0" stop-color="#fff"/>
      <stop offset=".09" stop-color="#ffecd8"/>
      <stop offset=".21" stop-color="#ffd4a7"/>
      <stop offset=".33" stop-color="#ffc07d"/>
      <stop offset=".46" stop-color="#ffb05a"/>
      <stop offset=".59" stop-color="#ffa340"/>
      <stop offset=".72" stop-color="#ff9a2d"/>
      <stop offset=".86" stop-color="#ff9421"/>
      <stop offset="1" stop-color="#ff931e"/>
    </radialGradient>
    <radialGradient id="radial-gradient1" cx="180.78" cy="50.62" fx="180.78" fy="50.62" r="40.08" gradientUnits="userSpaceOnUse">
      <stop offset="0" stop-color="#fff"/>
      <stop offset=".09" stop-color="#ffecd8"/>
      <stop offset=".21" stop-color="#ffd4a7"/>
      <stop offset=".33" stop-color="#ffc07d"/>
      <stop offset=".46" stop-color="#ffb05a"/>
      <stop offset=".59" stop-color="#ffa340"/>
      <stop offset=".72" stop-color="#ff9a2d"/>
      <stop offset=".86" stop-color="#ff9421"/>
      <stop offset="1" stop-color="#ff931e"/>
    </radialGradient>
    <radialGradient id="radial-gradient2" cx="278.75" cy="79.89" fx="278.75" fy="79.89" r="43.86" gradientUnits="userSpaceOnUse">
      <stop offset="0" stop-color="#fff"/>
      <stop offset=".09" stop-color="#ffecd8"/>
      <stop offset=".21" stop-color="#ffd4a7"/>
      <stop offset=".33" stop-color="#ffc07d"/>
      <stop offset=".46" stop-color="#ffb05a"/>
      <stop offset=".59" stop-color="#ffa340"/>
      <stop offset=".72" stop-color="#ff9a2d"/>
      <stop offset=".86" stop-color="#ff9421"/>
      <stop offset="1" stop-color="#ff931e"/>
    </radialGradient>
    <radialGradient id="radial-gradient3" cx="295.35" cy="173.99" fx="295.35" fy="173.99" r="39.72" gradientUnits="userSpaceOnUse">
      <stop offset="0" stop-color="#fff"/>
      <stop offset=".09" stop-color="#ffecd8"/>
      <stop offset=".21" stop-color="#ffd4a7"/>
      <stop offset=".33" stop-color="#ffc07d"/>
      <stop offset=".46" stop-color="#ffb05a"/>
      <stop offset=".59" stop-color="#ffa340"/>
      <stop offset=".72" stop-color="#ff9a2d"/>
      <stop offset=".86" stop-color="#ff9421"/>
      <stop offset="1" stop-color="#ff931e"/>
    </radialGradient>
    <radialGradient id="radial-gradient4" cx="254.2" cy="249.38" fx="254.2" fy="249.38" r="46.16" gradientUnits="userSpaceOnUse">
      <stop offset="0" stop-color="#fff"/>
      <stop offset=".09" stop-color="#ffecd8"/>
      <stop offset=".21" stop-color="#ffd4a7"/>
      <stop offset=".33" stop-color="#ffc07d"/>
      <stop offset=".46" stop-color="#ffb05a"/>
      <stop offset=".59" stop-color="#ffa340"/>
      <stop offset=".72" stop-color="#ff9a2d"/>
      <stop offset=".86" stop-color="#ff9421"/>
      <stop offset="1" stop-color="#ff931e"/>
    </radialGradient>
    <radialGradient id="radial-gradient5" cx="156.94" cy="263.11" fx="156.94" fy="263.11" r="35.58" gradientUnits="userSpaceOnUse">
      <stop offset="0" stop-color="#fff"/>
      <stop offset=".09" stop-color="#ffecd8"/>
      <stop offset=".21" stop-color="#ffd4a7"/>
      <stop offset=".33" stop-color="#ffc07d"/>
      <stop offset=".46" stop-color="#ffb05a"/>
      <stop offset=".59" stop-color="#ffa340"/>
      <stop offset=".72" stop-color="#ff9a2d"/>
      <stop offset=".86" stop-color="#ff9421"/>
      <stop offset="1" stop-color="#ff931e"/>
    </radialGradient>
    <radialGradient id="radial-gradient6" cx="70.12" cy="206.81" fx="70.12" fy="206.81" r="38.97" gradientUnits="userSpaceOnUse">
      <stop offset="0" stop-color="#fff"/>
      <stop offset=".09" stop-color="#ffecd8"/>
      <stop offset=".21" stop-color="#ffd4a7"/>
      <stop offset=".33" stop-color="#ffc07d"/>
      <stop offset=".46" stop-color="#ffb05a"/>
      <stop offset=".59" stop-color="#ffa340"/>
      <stop offset=".72" stop-color="#ff9a2d"/>
      <stop offset=".86" stop-color="#ff9421"/>
      <stop offset="1" stop-color="#ff931e"/>
    </radialGradient>
    <radialGradient id="radial-gradient7" cx="53.47" cy="133.93" fx="53.47" fy="133.93" r="39.61" gradientUnits="userSpaceOnUse">
      <stop offset="0" stop-color="#fff"/>
      <stop offset=".09" stop-color="#ffecd8"/>
      <stop offset=".21" stop-color="#ffd4a7"/>
      <stop offset=".33" stop-color="#ffc07d"/>
      <stop offset=".46" stop-color="#ffb05a"/>
      <stop offset=".59" stop-color="#ffa340"/>
      <stop offset=".72" stop-color="#ff9a2d"/>
      <stop offset=".86" stop-color="#ff9421"/>
      <stop offset="1" stop-color="#ff931e"/>
    </radialGradient>
    <radialGradient id="radial-gradient8" cx="93.89" cy="71.87" fx="93.89" fy="71.87" r="38.9" gradientUnits="userSpaceOnUse">
      <stop offset="0" stop-color="#fff"/>
      <stop offset=".09" stop-color="#ffecd8"/>
      <stop offset=".21" stop-color="#ffd4a7"/>
      <stop offset=".33" stop-color="#ffc07d"/>
      <stop offset=".46" stop-color="#ffb05a"/>
      <stop offset=".59" stop-color="#ffa340"/>
      <stop offset=".72" stop-color="#ff9a2d"/>
      <stop offset=".86" stop-color="#ff9421"/>
      <stop offset="1" stop-color="#ff931e"/>
    </radialGradient>
  </defs>
  <g>
    <path class="st20" d="M557.71,307.08c-77.85,0-141.18-66.17-141.18-147.5S479.86,12.08,557.71,12.08s141.18,66.17,141.18,147.5-63.33,147.5-141.18,147.5h0Z"/>
    <path d="M557.71,14.58c37,0,71.8,15.06,97.99,42.39,26.24,27.4,40.69,63.84,40.69,102.61s-14.45,75.21-40.69,102.61c-26.19,27.34-60.98,42.39-97.99,42.39s-71.8-15.06-97.99-42.39c-26.24-27.4-40.69-63.84-40.69-102.61s14.45-75.21,40.69-102.61c26.19-27.34,60.98-42.39,97.99-42.39M557.71,9.58c-79.35,0-143.68,67.16-143.68,150s64.33,150,143.68,150,143.68-67.16,143.68-150S637.06,9.58,557.71,9.58h0Z"/>
  </g>
  <g>
    <rect class="st25" x="402.06" y="966.74" width="146.56" height="59.93" rx="9" ry="9"/>
    <path d="M539.62,967.74c4.41,0,8,3.59,8,8v41.93c0,4.41-3.59,8-8,8h-128.56c-4.41,0-8-3.59-8-8v-41.93c0-4.41,3.59-8,8-8h128.56M539.62,965.74h-128.56c-5.52,0-10,4.48-10,10v41.93c0,5.52,4.48,10,10,10h128.56c5.52,0,10-4.48,10-10v-41.93c0-5.52-4.48-10-10-10h0Z"/>
  </g>
  <g>
    <rect class="st25" x="567.26" y="966.74" width="146.56" height="59.93" rx="9" ry="9"/>
    <path d="M704.82,967.74c4.41,0,8,3.59,8,8v41.93c0,4.41-3.59,8-8,8h-128.56c-4.41,0-8-3.59-8-8v-41.93c0-4.41,3.59-8,8-8h128.56M704.82,965.74h-128.56c-5.52,0-10,4.48-10,10v41.93c0,5.52,4.48,10,10,10h128.56c5.52,0,10-4.48,10-10v-41.93c0-5.52-4.48-10-10-10h0Z"/>
  </g>
  <g>
    <rect x="460.36" y="650.49" width="86.76" height="312.75"/>
    <path d="M544.62,652.99v307.75h-81.76v-307.75h81.76M549.62,647.99h-91.76v317.75h91.76v-317.75h0Z"/>
  </g>
  <g>
    <rect x="568.76" y="650.49" width="86.75" height="312.75"/>
    <path d="M653.02,652.99v307.75h-81.76v-307.75h81.76M658.02,647.99h-91.76v317.75h91.76v-317.75h0Z"/>
  </g>
  <g>
    <rect x="459.9" y="268.79" width="195.61" height="376.7"/>
    <path d="M653.02,271.29v371.7h-190.61v-371.7h190.61M658.02,266.29h-200.61v381.7h200.61v-381.7h0Z"/>
  </g>
  <g>
    <rect class="st16" x="660.52" y="268.79" width="68.92" height="268.3"/>
    <path class="st24" d="M726.94,271.29v263.3h-63.92v-263.3h63.92M731.94,266.29h-73.92v273.3h73.92v-273.3h0Z"/>
  </g>
  <g>
    <rect class="st16" x="301.46" y="184.42" width="68.92" height="237.91" transform="translate(32.13 638.93) rotate(-89.93)"/>
    <path class="st24" d="M219.49,271.26l232.91.28-.08,63.92-232.91-.28.08-63.92M214.49,266.25l-.09,73.92,242.91.29.09-73.92-242.91-.29h0Z"/>
  </g>
  <g>
    <rect class="st20" x="659.47" y="542.09" width="71.02" height="71.02"/>
    <path class="st23" d="M727.99,544.59v66.02h-66.02v-66.02h66.02M732.99,539.59h-76.02v76.02h76.02v-76.02h0Z"/>
  </g>
  <g>
    <rect class="st20" x="140.89" y="268.75" width="71.02" height="69.21"/>
    <path class="st23" d="M209.4,271.25v64.21h-66.02v-64.21h66.02M214.4,266.25h-76.02v74.21h76.02v-74.21h0Z"/>
  </g>
  <g>
    <rect class="st22" x="140.89" y="253.75" width="71.02" height="10"/>
    <path class="st22" d="M209.4,256.25v5h-66.02v-5h66.02M214.4,251.25h-76.02v15h76.02v-15h0Z"/>
  </g>
  <g>
    <rect class="st22" x="63.9" y="243.75" width="225" height="5"/>
    <polygon class="st22" points="291.4 241.25 61.4 241.25 61.4 251.25 291.4 251.25 291.4 241.25 291.4 241.25"/>
  </g>
  <g>
    <path d="M523.13,168.37c-13,0-30.45-14.51-42.45-35.29-14.55-25.19-16.62-52.38-4.52-59.36,1.94-1.12,4.2-1.69,6.7-1.69,13,0,30.45,14.51,42.44,35.29,14.55,25.19,16.62,52.38,4.52,59.36-1.94,1.12-4.2,1.69-6.7,1.69h.01Z"/>
    <path d="M482.87,74.54h0c5.51,0,12.42,3.14,19.46,8.85,7.72,6.26,14.92,14.97,20.82,25.19,7.12,12.33,11.39,25.23,12.03,36.32.56,9.73-1.84,16.88-6.59,19.62-1.56.9-3.39,1.35-5.45,1.35-5.51,0-12.42-3.14-19.46-8.85-7.72-6.26-14.92-14.97-20.82-25.19-7.12-12.33-11.39-25.23-12.03-36.32-.56-9.73,1.84-16.88,6.59-19.62,1.56-.9,3.39-1.35,5.46-1.35M482.87,69.54c-2.9,0-5.58.65-7.95,2.02-13.52,7.81-11.91,35.91,3.6,62.78,12.79,22.15,31.02,36.54,44.61,36.54,2.9,0,5.58-.65,7.95-2.02,13.52-7.81,11.91-35.91-3.6-62.78-12.79-22.15-31.02-36.54-44.61-36.54h0Z"/>
  </g>
  <g>
    <path d="M588.32,167.96c-3.98,0-7.41-1.01-10.22-2.99-13.39-9.46-9.11-39.52,9.34-65.66,14.26-20.19,33.76-33.76,48.53-33.76,3.97,0,7.41,1.01,10.22,2.99,13.39,9.46,9.11,39.52-9.34,65.66-14.26,20.19-33.76,33.76-48.53,33.76h0Z"/>
    <path d="M635.96,68.05h0c3.45,0,6.4.85,8.78,2.53,5.48,3.87,7.83,12.39,6.44,23.36-1.55,12.26-7.37,26.04-16.38,38.81-13.81,19.56-32.49,32.7-46.49,32.7-3.45,0-6.4-.85-8.78-2.53-5.48-3.87-7.83-12.39-6.44-23.36,1.55-12.26,7.37-26.04,16.38-38.81,13.81-19.56,32.49-32.7,46.49-32.7M635.96,63.05c-15.18,0-35.36,13.28-50.57,34.82-19.6,27.76-23.51,58.71-8.74,69.14,3.31,2.34,7.28,3.45,11.66,3.45,15.18,0,35.36-13.28,50.57-34.82,19.6-27.76,23.51-58.71,8.74-69.14-3.31-2.34-7.28-3.45-11.66-3.45h0Z"/>
  </g>
  <g>
    <path d="M477.69,204.02c-1.64,1.81-5.69,6.29-9.7,10.72s-7.74,8.56-9.27,10.24c-.42-.38-.84-.76-1.27-1.15l18.97-20.96,1.27,1.15h0Z"/>
    <path d="M476.43,202.87l-18.97,20.96c.42.38.84.76,1.27,1.15,1.53-1.69,5.38-5.94,9.27-10.24,4.01-4.43,8.06-8.91,9.7-10.72l-1.27-1.15h0Z"/>
  </g>
  <polygon class="st14" points="485.34 224.11 512.48 235.53 558.17 240.81 584.85 240.81 599.17 235.15 609.35 229.5 622.92 221.96 640.26 209.9 475.16 217.44 485.34 224.11"/>
  <g>
    <path d="M656.78,216.3c-1.68-1.77-5.85-6.14-9.97-10.46-4.01-4.2-7.96-8.35-9.53-10,.41-.39.82-.79,1.24-1.18l19.5,20.46-1.24,1.18h0Z"/>
    <path d="M638.51,194.65c-.41.39-.82.79-1.24,1.18,1.57,1.65,5.53,5.8,9.53,10,4.12,4.32,8.29,8.7,9.97,10.46l1.24-1.18-19.5-20.46h0Z"/>
  </g>
  <g>
    <ellipse class="st21" cx="176.4" cy="159.58" rx="55.88" ry="49.45"/>
    <path class="st19" d="M176.4,115.13c28.05,0,50.88,19.94,50.88,44.45s-22.82,44.45-50.88,44.45-50.88-19.94-50.88-44.45,22.82-44.45,50.88-44.45M176.4,110.13c-30.86,0-55.88,22.14-55.88,49.45s25.02,49.45,55.88,49.45,55.88-22.14,55.88-49.45-25.02-49.45-55.88-49.45h0Z"/>
  </g>
  <path class="st12" d="M157.04,86.23c13.22,7.56,28.29,11.87,43.51,12.44,3.74-9.58,3.39-20.19,2.98-30.46-.07-1.82-.18-3.75-1.23-5.24-1.08-1.54-2.95-2.29-4.74-2.9-11.76-4-24.48-5.15-36.76-3.33-3.43-10.24-4.27-21.6-.71-31.79s11.94-18.96,22.44-21.45c2.2-.52,4.45-.77,6.7-1.02"/>
  <path class="st7" d="M231.54,111.8c7.56,6.86,21.57,3.84,25.63-5.52,4.36-10.04-2.17-21.49-1.29-32.4.97-12,11.08-21.69,22.37-25.87,11.3-4.18,23.67-3.94,35.71-3.64,4.7.12,10.85,1.51,11.2,6.2"/>
  <path class="st8" d="M245.75,153.23c.85,8.02,2.63,16.95,9.31,21.45,5.92,3.99,13.98,3.11,20.52.22s12.14-7.49,18.39-10.96,13.72-5.79,20.51-3.55c4.63,1.53,8.34,4.98,11.84,8.37,7.64,7.4,15.32,15.36,18.76,25.43"/>
  <path class="st11" d="M224.39,193.41c-1.2,10.02-1.97,21.48,4.92,28.85,8.24,8.81,22.61,6.88,33.73,11.56,12.31,5.17,19.72,18.46,21.34,31.71s-1.61,26.59-5.32,39.41"/>
  <path class="st6" d="M167.51,216.36c.22,4.9.31,9.8.28,14.71-.02,2.32-.08,4.71-1.01,6.83-1.16,2.66-3.54,4.57-5.97,6.15-3.68,2.41-7.67,4.34-11.84,5.73-2.54.84-5.37,1.65-6.81,3.9-1.09,1.7-1.13,3.85-1.02,5.86,1.11,20.46,14.41,39.79,33.12,48.14"/>
  <path class="st5" d="M117.48,189.77c-7.12-2.21-14.23-4.43-21.35-6.64-1.68-.52-3.5-1.05-5.16-.48-1.94.65-3.12,2.58-4.09,4.39-4.29,8.04-7.59,16.6-12.34,24.37s-11.26,14.91-19.79,18.11c-10.53,3.94-23.31.84-30.87-7.48"/>
  <path class="st10" d="M103.96,133.32c1.35-2.81-.26-6.36-2.86-8.09s-5.88-2.05-9-2.04c-7.68.02-15.34,1.69-22.34,4.86-10.26,4.65-18.93,12.42-29.38,16.62-5.19,2.09-10.75,3.26-16.35,3.44-3.55.11-7.33-.25-10.21-2.34-2.54-1.85-4.03-4.78-5.42-7.6-3.21-6.52-6.51-13.48-5.8-20.71"/>
  <path class="st9" d="M130.71,108.36c2.51-6.44.2-14.08-4.54-19.12s-11.49-7.76-18.28-8.99c-10.51-1.91-21.78-.71-31.45-5.25-14.47-6.8-20.67-24.51-20.38-40.49"/>
  <polygon class="st1" points="511.33 266.29 604.09 266.29 557.71 382.8 511.33 266.29"/>
  <rect class="st13" x="557.24" y="381.98" width=".95" height="147.28"/>
  <rect class="st4" x="457.94" y="528.44" width="199.58" height="11.15"/>
  <rect class="st0" x="547.42" y="528.01" width="20.58" height="12"/>
  <circle class="st2" cx="557.71" cy="397.36" r="5.67"/>
  <circle class="st2" cx="557.71" cy="443.31" r="5.67"/>
  <circle class="st2" cx="557.71" cy="494.29" r="5.67"/>
  <circle class="st15" cx="757.25" cy="168.37" r="49.51"/>
  <circle class="st3" cx="351.67" cy="521.54" r="51.46"/>
  <ellipse class="st3" cx="723.4" cy="833.98" rx="49.58" ry="45.42"/>
  <g class="st18">
    <text class="st17" transform="translate(743.46 184.42)"><tspan x="0" y="0">1</tspan></text>
  </g>
  <g class="st18">
    <text class="st17" transform="translate(338.07 536.93)"><tspan x="0" y="0">2</tspan></text>
  </g>
  <g class="st18">
    <text class="st17" transform="translate(710.09 850.71)"><tspan x="0" y="0">3</tspan></text>
  </g>
</svg>